<svg id="Layer" xmlns="http://www.w3.org/2000/svg" viewBox="0 0 1312 1385.03"><path d="M13.47,759.29c-2.4-1.29-2-3.67-2.23-5.78-.21-2.69-.34-5.3-2.32-7.5-.7-.77-.71-2.17-1-3.29a9.71,9.71,0,0,0-.63-2.81c-8.72-14.15-8.59-27.18-4.86-41.17a18.18,18.18,0,0,1,2.91-5.84c5.44-7.59,5.15-16.33,5.2-25a9.82,9.82,0,0,1,1.61-5.59c2.32-3.65,4.88-7.38,3.44-12.13a5.14,5.14,0,0,0-.59-1.36c-.16-.26-.51-.4-1-.72-2.43,1.26-2.15,6.07-6.53,5.17a79,79,0,0,1-1.94-8.18c-.72-5.73,2.69-10.58,4-15.89.38-1.51,2.68-2.8,4.38-3.65a46.09,46.09,0,0,1,6.69-2.14c-1-4.19,1.82-4.7,4.44-5.56,2.81-.92,2.79-1,.67-4l.11.16c3.05-5.39.41-11.12,1-16.73.79-7.17-.64-14.2-2.66-21.12a18.84,18.84,0,0,1-.45-4.5c-.24-7.69-.48-15.39-.63-23.08a36.37,36.37,0,0,1,.49-6.07c1.24-8.08,2.15-16.35,4-24.36A121.29,121.29,0,0,1,36.09,493c1.8-3.8,3.76-7.55,5.33-11.45,1.67-4.17,2.93-8.52,4.41-12.77.26-.78.52-2,1-2.18,3.44-.83,2.8-3.46,3.29-5.93A81,81,0,0,1,55,444.81l-1.73,12,.67.29a23.9,23.9,0,0,0,2-2.55c3.22-5.31,6.51-10.6,9.52-16,1.79-3.24,3.06-6.73,2.29-10.65-.2-1,.47-2.2,1-4.43l1.41,4.62c3.85-.73,5.33-3.61,6.59-6.53,1.81-4.16,3.4-8.43,5.09-12.67q8.88-22.85,17.76-45.7c2.69-6.9,5.45-13.75,8.14-20.65a19.53,19.53,0,0,0,1-4.4,249.65,249.65,0,0,1,8.46-37.92C121,287.41,125,274.7,128.7,261.93a48.56,48.56,0,0,0,1.53-9,47.8,47.8,0,0,1,6.27-20.64c3.74-6.2,5.55-13,7.13-19.88,1.79-8,4-15.66,8.59-22.53a25.06,25.06,0,0,0,2.15-4.57,20.3,20.3,0,0,1,6.55-8.16c6.34-5,12.46-10.38,18.55-15.72,3.19-2.77,4.5-6.7,5.57-10.62,1.57-5.68,2.74-11.48,4.45-17.11a35.39,35.39,0,0,1,4.23-9.63c4.95-7.3,8.86-15.17,12.95-22.88a107.16,107.16,0,0,1,9.16-13.86c3.32-4.45,7.06-8.6,10.62-12.87a19.1,19.1,0,0,1,2-2.27C242.29,60,256,47.65,273.38,40.43c.95-.39,1.82-.91,2.76-1.3a11.62,11.62,0,0,0,7.12-8c1.09-4.13,3.84-6.95,7.12-9.51,8.48-6.55,18.66-8.77,28.74-10.94,12.57-2.7,25.34-4.54,38-6.88,20.46-3.77,41-5,61.71-2.46,22.17,2.73,43.5,8.54,64.57,15.74a310.41,310.41,0,0,1,34.28,14c3.82,1.84,7.79,3.36,11.72,4.9,28.83,11.39,57.88,22.24,86.49,34.25,19.65,8.26,38.77,17.8,57.91,27.22,33.13,16.3,66,33.08,99.13,49.36,18.85,9.25,38,17.8,58,24.62,7.69,2.64,15.34,5.39,23,8,20,6.72,40.91,9.53,61.53,13.4,7.73,1.45,15.76,1.24,23.25,4.22,2,.79,4.34.75,6.53,1a26,26,0,0,1,12.47,5c9.06,6.37,19.39,8.42,30.25,8.46,5.09,0,10.18.48,15.19-.19,7.37-1,14.59-3,21.92-4.31a128.16,128.16,0,0,1,16.54-2.37c12.69-.65,25.44-.83,38.13-1.19a96.81,96.81,0,0,0,30.74-6.29c9.55-3.51,19-7.19,27.54-12.86,4.93-3.28,9.93-6.47,14.61-10.11a76.19,76.19,0,0,1,22.66-12.23c7.73-2.56,15.2-5.83,22.93-8.33a142.46,142.46,0,0,1,18.2-4.56,13.73,13.73,0,0,1,14.35,5.59c3.84,5.24,3.81,10.64,0,15.89-3,4.19-7.31,7-11.74,9.5-7.22,4-14.41,8.25-21.81,12-14.43,7.33-27.31,16.91-40.13,26.61-2,1.54-4.07,3-6,4.63-3.06,2.53-4.89,5.59-3.7,9.75a10,10,0,0,0,9.16,7.53,64.87,64.87,0,0,0,12.69-.37c14.58-2.14,29.14-4.5,43.68-7a50.45,50.45,0,0,1,17.16.07c8.83,1.53,17.75,2.62,26.67,3.55,8.6.9,17.3,1.18,25.85,2.09,9.58,1,16.56,5.74,19.47,15.26a19.93,19.93,0,0,1,.83,6.46c-.24,6.73-3.94,10.51-10.66,11.25q-14.65,1.65-29.32,3.26c-.45.05-.88.23-1.49,1.08,2.19.58,4.36,1.26,6.58,1.71,5.47,1.09,11,2.22,16.48,3a70.78,70.78,0,0,0,11.07.76c7-.1,11.36,2.23,14,8.63a30.62,30.62,0,0,1,2.36,9.73c.59,9.5-4.56,15.7-13.93,17.48-4.55.86-9.15,1.21-13.58-.3-5.8-2-11.68-1.55-17.62-1.11-13.68,1-27.27,3.32-41.06,2.38a9.75,9.75,0,0,0-2.53,0c-10.6,2.17-21.27,4.05-31.74,6.71-3.76,1-7.4,3.42-10.45,6-4.49,3.72-3.74,8.6,1.25,11.63a18,18,0,0,0,3.71,1.63c12.54,4.19,25.18,8.09,38.28,10.21a34,34,0,0,1,12.79,4.66,33.54,33.54,0,0,0,14.32,4.76c7.58.86,15.12,2,22.68,2.94a18.91,18.91,0,0,1,10.58,4.53c9.69,8.62,6.11,25.2-6.55,29.7-8.91,3.16-18.12,4.71-27.47,1.86a81.12,81.12,0,0,0-21.55-3.34c-10.43-.32-20.45-2.59-30.53-5a202.6,202.6,0,0,0-56.48-5.71c-10.66.46-21.37.31-31.93,2.24-9.15,1.67-17.29,5.66-25.36,10.11-2.67,1.48-3.9,4.14-4.77,6.93-3,9.86-.94,18.75,5.65,26.44a93.07,93.07,0,0,0,11,10.42c12.1,10.19,22.88,21.55,31.31,35a48.73,48.73,0,0,1,7.75,30.32c-.82,10.66-10.07,16.23-19.63,11.42a36.47,36.47,0,0,1-11.69-8.72c-6.75-8.18-15-14.55-23-21.38a129.58,129.58,0,0,1-11.08-11c-6.48-7.07-12.29-14.87-20.23-20.53a98.27,98.27,0,0,0-13.23-8.36,77.43,77.43,0,0,1-24.42-19.29c-11.5-13.24-23.94-25.69-36-38.41-6-6.38-12-12.82-18.31-19-9.16-9-18.86-17.39-31.62-21.32-3-.92-5.64-3-8.43-4.53-.58-.32-1-.86-1.65-1.17-14-7.45-27.35-16.17-42.15-22.08a23.17,23.17,0,0,1-4.13-1.93c-16.66-10.76-35.44-15.93-54.51-20.21-19.52-4.35-39-8.9-58.7-12.3-19.18-3.33-38.36-6.75-57.92-7.82s-39.17-3.33-58.76-5.05c-5.22-.47-10.44-1-15.67-1.41a31.13,31.13,0,0,0-4.2.32,43.67,43.67,0,0,0,3.12,5.05c3.26,3.85,4.93,8.4,6.29,13.14,1,3.4,2.13,6.76,3,10.2a15.88,15.88,0,0,0,7.65,10.24c14.73,8.93,26.33,21.12,36.21,35,2,2.82,3.25,6.23,4.6,9.46,3,7.16,5.65,14.38,10.69,20.53,2.29,2.8,3.75,6.34,5.22,9.71,2,4.62,3.57,9.46,5.58,14.09A19.86,19.86,0,0,0,717,417.1c1.32.33,2.63.7,3.94,1.07a12.89,12.89,0,0,1,8.74,7.12c2.93,6.23,7.34,11.67,9.16,18.55.75,2.93,3.19,5.5,5.08,8.09,3.31,4.47,4.4,8.81,2.54,14.56-2.5,7.7,1,14.52,6.1,20.33,1.75,2,4.07,3.46,6.26,5.1,3.11,2.42,6.93,2.64,10.58,2.83s5.83,2.42,7.77,5.25c.24-.67.37-1.77.69-1.82,4.07-.7,7.12-4.19,11.71-3.56,2.31.33,4.73-.24,7.12-.2,3.64.06,7.47-.61,10.41,2.59.59.64,1.88.63,2.83,1,3.78,1.35,4.17,3.16,1.48,6.6l2.84,6.42V499.93c15.49,2.43,25.28,13.85,27.54,33l-3.65,1c-.75,3-1.62,6.13-2.31,9.32-.55,2.62,1.5,3,3.35,3.46l-.05-.11a3.54,3.54,0,0,0-3.32,3.22c5.34.36,10.52.51,15.63,1.08,6.72.74,13.43,1.62,20.08,2.8,4.87.88,6.5,4.52,4.86,9.36a7.45,7.45,0,0,0-.38,3.77c4.49,19.95,6.41,40.22,7.3,60.57q1.19,26.73,1.28,53.57c.06,12.6-.58,25.21-1.12,37.81-.36,8.74-1.06,17.46-1.69,26.19-.44,6.25,5.42,14.49,11.58,16,13.63,3.36,23.79,11.75,32.56,22.11a11.92,11.92,0,0,1,2.33,3.88c3.71,11.64,3.5,22.89-4,33.17-2,2.73-4.33,5.19-6.55,7.74a39.61,39.61,0,0,1-14.24,10.3,123.35,123.35,0,0,1-22,7.65c-5.35,1.23-5.31,1.69-5.33,7.31,0,6.39-.38,12.78-.61,19.21a21.83,21.83,0,0,0-.21,3c2,17,.61,33.92-1,50.81-1.4,14.07-2.87,28.15-5,42.12-2,12.8-4.87,25.45-7.37,38.17-1,4.94-3.69,7.88-8.85,9.09a186.7,186.7,0,0,1-44.77,5.72c-10.66,0-21.37.71-32,.93-4.2.08-8.14.18-10.51,4.62l.3-3.62c-4.68-.27-4.4,4.16-6.5,6.12.87.82,2,1.44,2,2a3.44,3.44,0,0,1-1.45,2.41c-3.92,2.59-7.94,5-12,7.49-2.1,1.25-3.92,2.67-4.52,5.17v-.08c-1.69,2.23-3.77,4.33-2.17,8l2.31-3.89,2.61,3.7-1.89,2.13,2.43,1.88c-5.78,1.24-6.32,1.71-6.39,5.9l3.65-.69c.17.36.5.76.41.9-.71,1-1.49,2-2.46,3.36,3.76,2.43,7.5,2.35,11.13,1.76a87.78,87.78,0,0,0,11.88-2.74c7-2.13,13.79-4.72,20.77-6.8,8.76-2.62,17.68-4.73,26.45-7.41,15.61-4.8,30.61-11,44.23-20.13,9.26-6.24,19-11.76,28-18.4,17.3-12.84,37-21.75,54.52-34.37,6.42-4.63,13.23-8.7,19.48-13.69,3.8-3,8.3-5.26,12.21-8.26,6.39-5,12.81-10,18.71-15.53a176.71,176.71,0,0,1,34.19-25.27c8.92-5.05,16.67-11.46,24.22-18.3a69.29,69.29,0,0,1,13.43-9.9c9.53-5,17.67-11.91,25.54-19.07,6.63-6.07,12.89-12.45,19.44-18.56a37,37,0,0,1,7.22-5.53c9.29-5.06,17.16-12,25.21-18.74a113.8,113.8,0,0,1,12.63-9.31c7.5-4.67,12.46-3,16.72,4.5a23.6,23.6,0,0,1,1.19,22.23c-5.77,13.32-15.15,23.75-25.74,33.43s-21.9,19.21-31,30.59a53.47,53.47,0,0,0-7,12.13c-2.12,5-1,9.94,2.3,14.31A26.6,26.6,0,0,0,1123,944.9c25,6.68,50.08,6.33,75,.38,14.44-3.43,28.93-6.92,42.47-13.63a108,108,0,0,1,30.33-10c7.25-1.18,12.64.93,15.7,6.4a15.46,15.46,0,0,1-1.71,17.93c-3,3.43-5.76,7.08-9,10.27-2.35,2.39-5.28,4.19-7.83,6.39a128.46,128.46,0,0,0-10.46,9.49,22.64,22.64,0,0,1-8.61,6.07c-16.06,5.87-32,12.13-49,14.86a16.13,16.13,0,0,0-9.46,4.54c-2.73,2.88-3,5.95-.55,9.1a12.44,12.44,0,0,0,9,5.14c9.61.67,19.26,1.11,28.9,1.5,3.71.14,7.45-.3,11.19-.12a23.5,23.5,0,0,0,16.52-5.31q8.71-7,17.68-14.17c2.52-2,5.08-4,7.69-5.8,8.79-6.07,21.49-.68,23.22,9.87.89,5.47-.78,10.24-4.07,14.68-4.86,6.67-9.72,13.36-14.25,20.22-3.21,4.84-3,5,1.17,8.75a12.89,12.89,0,0,1,4.49,12.7c-.72,4.37-2.16,8.47-5.32,11.81a53.64,53.64,0,0,0-4.15,5.12,85.88,85.88,0,0,1-29.51,25.05,66.25,66.25,0,0,0-8.19,5,30.56,30.56,0,0,1-22.52,5.93c-10.6-1.28-21.21-2.4-31.82-3.56-7.13-.75-14.17-1.54-21.26-2.09-3.18-.24-6.83-.58-8.53,3-1.51,3.18.54,5.86,2.33,8.32,5.76,8,13.23,13.51,23,15.6,11.1,2.37,22.25,4.51,33.32,7a49.85,49.85,0,0,1,11.93,4.11c6.52,3.4,9,9.48,7.68,16.62-.76,4-2.52,5.86-6.62,6.6a30.07,30.07,0,0,1-4.54.43c-13.74.43-27.48.69-41.14-1.13-4.69-.63-9.46-.8-14.2-1a30.42,30.42,0,0,1-12.66-3.42c-5.86-3-11.81-5.93-17.62-9.1a204.72,204.72,0,0,0-38.56-15.6c-9.37-2.83-19.07-3-28.7-3.41-12.54-.55-25.1-.49-37.65-1.27a90.92,90.92,0,0,1-18.45-3.27,72.44,72.44,0,0,0-20.63-2.26,20.5,20.5,0,0,0-10.55,3.18,64.73,64.73,0,0,1-10.47,5.06,175,175,0,0,1-30.84,8.26,48.3,48.3,0,0,0-12,3.93c-7.6,3.56-15.77,5-23.78,7.2-4.07,1.09-8,2.78-11.92,4.27-2.84,1.07-5.57,2.54-8.5,3.31-9.73,2.6-18.71,6.91-27.7,11.3s-18.52,8.36-27.55,13c-10.69,5.47-21.16,11.35-31.63,17.19-8.41,4.71-16.87,9.4-25,14.58-15.11,9.65-29.84,19.89-45,29.45-24.19,15.25-48.63,30.09-72.88,45.23-7.13,4.47-14,9.45-21.14,14-5.68,3.66-11.49,7.15-17.35,10.54-10.24,6-20.35,12.13-30.91,17.54-7,3.63-14.67,6.06-22,9.1-15.19,6.25-30.33,12.63-45.57,18.77a134.28,134.28,0,0,1-16.34,5.55c-16.4,4.26-32.88,8.21-49.31,12.34a178.77,178.77,0,0,1-34.59,5c-5.22.27-10.48-.54-15.73-.61a176.17,176.17,0,0,0-18.24.29c-7.12.62-14.12,1.81-21.14,3-11.19,1.88-22.33.25-33.38-1.47-6.1-1-11.44-4.16-16.55-7.49a44.06,44.06,0,0,0-17.07-6.19c-12.67-2.16-24.59-6.2-35.12-13.74a16.43,16.43,0,0,0-2.09-1.43,99.42,99.42,0,0,1-26.9-20.45,14.55,14.55,0,0,0-3.63-2.75c-19.33-10.65-33.19-26.85-45.79-44.48a457.46,457.46,0,0,1-28.16-43.81c-6.89-12.39-14.15-24.58-20.63-37.16-5.24-10.17-9.6-20.8-14.24-31.26a34.42,34.42,0,0,1-1.49-5.34c-.87-3.23-1.69-6.47-2.63-9.67-1.42-4.84-2.81-9.69-4.42-14.46-4.66-13.9-9.49-27.73-14.11-41.64-2.66-8-4.5-16.29-7.62-24.08-5.19-12.92-6.62-26.8-11.19-39.83-1.79-5.13-1.11-10.55-2.46-15.73a18,18,0,0,0-4.67-8.77c-2.74-2.69-6-4.93-8.44-7.85a74.09,74.09,0,0,1-7.39-10.79c-4.15-7.15-5.62-15-5.47-23.24,0-1.64-.54-3.29-.67-4.94a19.76,19.76,0,0,1,.35-5.89l-2.88-8-.12.1L54.86,957a28.8,28.8,0,0,0,2-12.62c-.16-2.25-2-4.4-3.06-6.64,3.53-2.94,5.24-3.71-.43-7.34a34.67,34.67,0,0,0,.59-4.86c0-2.79.21-5.67-3.06-7.37-1.91-1-1.88-2.93-.83-4.86s1.79-3.88-.18-6c-.7-.75,0-2.63-.57-3.66a124.59,124.59,0,0,0-7.65-12.87,17.16,17.16,0,0,0-6.1-4.91c-3.53-1.78-5.2-5-7.55-7.82-6.29-7.38-10.92-15.53-12.87-25.18-1-4.74-.63-9.32-.31-14,.2-3-.06-6,.21-9,.15-1.7.92-3.34,1.57-5.54l-2.4-10.31.91-.3,2.88,7c2-2.82,3.11-5.18,1.24-8.26-2.42-4-4.63-8.09-6.91-12.18-.41-.73-1.09-1.55-1-2.25.24-2.15-1-2.91-2.95-3,.3-2.23,3.52-3.09,1.67-5.48-.2-.25.5-1.15.72-1.78,1.47-4,3-8.08,4.33-12.21a5.73,5.73,0,0,0-.32-2.36c-.65-4-1.33-8.09-1.92-12.13a6,6,0,0,1,.39-2l1.79.23-1.13-3-.51.15ZM828.62,627c1.89,2.22,3.72,4.5,5.71,6.67,1.29,1.4,2.88,2.17,4.77.92,2.74-.61,2.85,1.66,2.38,2.9-1,2.74.2,4.4,1.83,6.19,2.15,2.37,4.56,4.58,6.23,7.25,3.28,5.21,6.1,10.68,9.16,16l1.87,3.36c3.66-2.4,4.66,1.67,7.12,3.15l.82-6.06c.61.27.84.3.88.4,1.74,4.28,1,9.43,4.76,13,.2.18.19.66.14,1-1,6.07,3.39,10.83,3.65,16.62a21.8,21.8,0,0,0,1.32-6.48c.1-13.28.5-26.59,0-39.86-.62-16.17-1.78-32.27-3.22-48.36-.79-8.87-2.53-17.65-4.07-26.44-.28-1.54-.34-3.3-3.31-4-3.57-.82-3.86-5.51-1.34-8.64a11.91,11.91,0,0,0,1-1.94,11.66,11.66,0,0,0-2.92-1.14,72.49,72.49,0,0,1-22.06-5.45,14.52,14.52,0,0,0-7-.68c-4.21.45-4.71,6.43-9.38,6.66-.47,0-.86,1.56-1.39,2.57l2.79.49c-.3,3.49-.89,6.71-4.65,8.3-1-.24-2.66-1.1-3.17-.66-2.81,2.42-5.78.91-8.69.82a9.38,9.38,0,0,0-2,.42v3.6l-6,2.3,1.86,4.47,4.85-2.66v-.08l-2.22,4.61a7.11,7.11,0,0,0,.9.26c3.68.17,8.22-3.59,10.69,2.36.2.45,1.57.34,2.32.67,1.13.48,2.2,1.11,3.59,1.83-3.16,2.3-5.57-.93-8.14,0,1.17,3,2.31,6.12,3.49,9.15,1.42,3.66,2.12,4,5.9,3.28a32.13,32.13,0,0,1,4.49-.28c.24,0,.47.3.61.39l-1.63,1.89-15.38,1.42c1.86,2.94,1.86,2.94,4,3.2,2.65.31,5.58,0,7.84,1.1a31.07,31.07,0,0,0,9.16,2.59,8.46,8.46,0,0,1,2.4,1.16l-.18.49c-3-.33-5.93-.65-8.95-1-.69,3.86,1.69,5.19,3.77,6.31a6.68,6.68,0,0,1,3,3.35c1.73,3.3,1.21,7.07,2.86,10.29L831,624.54l-2.43,2.53c-.64-4.05-1.14-4.39-4.19-2.7ZM813.09,522.51c-.28-.69-.58-1.36-.82-1.91-3.72.33-2.26,7.46-7.62,4.7l-1,5.35c7.12,1.65,11.65-1.67,12.21-8.58l-2.77.32ZM865,889.22c-4.28,1.07-6.63,3.17-7.94,6.19-2.34,5.36-4.47,10.82-6.54,16.29-.85,2.22-1.41,5.22-3.94,5.26-2.15,0-2.49,1.14-3.28,2.26-2.82,4-5.08,8.46-8.51,11.88-4.57,4.61-7.86,9.61-9.09,15.95a12.14,12.14,0,0,1-1.33,4.32c-1.33,2-2.71,4.5-4.71,5.53a20.88,20.88,0,0,0-8.06,7.46c-1.59,2.45-3.18,4.46-6,5.72a12.68,12.68,0,0,0-5.76,4.8c-2.65,4.93-7.26,7.48-11.51,10.39-5.72,3.92-7.61,10.44-11.53,15.58a3.28,3.28,0,0,0-.32,2c.25,4.29-1.54,8-3.38,11.7a21.32,21.32,0,0,0-1,3.74c3.73,0,7.12.15,10.38,0q19.77-1,39.56-2.16c4.68-.27,8.78-2.23,12.82-4.46a50,50,0,0,1,8.26-3.56c2.89-1,6-1.3,8.86-2.22,3.82-1.22,4.5-3.71,2.14-6.92-.65-.88-1.34-1.74-2.6-3.38,6,.7,6.7-3,7.52-6.71.56-2.46,1.36-4.87,1.75-7.35,1.54-9.7,4.81-19.2,3.32-29.31-.13-.92.42-1.94.6-2.93,1.14-6.07,2.74-12.13,3.29-18.33.88-9.86,1.13-19.78,1.53-29.69.13-3.12-.12-6.25-.19-9.39-1.62,6.38-1.62,6.38-4.32,7.76Zm325.12,168.25c6.19,5.53,23.85,5.06,33.33,0Zm40.7-781.79c-7.58-2.81-37.21-.89-42.34,2.43a229.48,229.48,0,0,0,42.31-2.41ZM767.24,996c-2.79,3.24-5.65,5.45-5.39,10a14.53,14.53,0,0,1-3.05,9.87c-.3.36-.12,1.09-.22,2.51,4.53-4.47,8.06-8.52,9.64-13.9l-3.25-.66C763.36,1000.2,769.26,1000.11,767.24,996ZM790.42,511.5l5.74-4.26,12.74.84c.17-3.76-2.34-5-4.17-4.41-3.2,1-5.22-.35-7.84-1.81L798,505C794.67,506.33,791.49,507.66,790.42,511.5ZM812,513.67c-2.87.41-4.81.69-7.24,1l2.94,3.76c-1.6,2-5.27,1-5.09,4.42,4.07,1.1,4.07,1.12,5.76-2C809.51,518.82,810.5,516.7,812,513.67Zm-22.6,56.49c-1.25,5,2.34,6.3,4.52,8.53,3-1.64.67-3.86,1.35-5.77Zm-9.83,10.46c1.87,2.9,1.87,2.9,7.58,4.93-.41-2.32-1-4.11-3.92-4.28.64-1.46,3-3,0-4.47-.85.76-1.75,1.52-2.58,2.32a11.61,11.61,0,0,0-1.08,1.45Zm-23.89-18,1.3.38a21,21,0,0,0,4.07-2.73,3.57,3.57,0,0,0,.43-3,2.63,2.63,0,0,0-2.39-1,8.52,8.52,0,0,0-3.11,3c-.55.87-.24,2.17-.3,3.31ZM755.06,592c-.92-3.63-.32-7.93-5.08-10.82.68,4.64,1.12,8.44,5.08,10.73Zm62.39,25.63c-2,3.29.27,3.93,2.12,4.62,2.31.87,3.85.2,4.5-2.61ZM785,591l-1.77-4.86c-3,1.63-4.3,3.41-3.26,5,1.61,2.47,3.36,1.11,5-.28Zm-32-34.53c-2.88.75-4.65,2.42-5.19,5.84C751.44,561.58,753.42,560.1,753.05,556.46Zm17,461.36c.51-2-.59-3.19-2.09-3.37-2-.23-3.16,1.2-4.27,3.37Zm60.61-502.37,3.21,7.08,1-.44c-.66-2.57-.86-5.33-4.23-6.67ZM33.81,509.56l.81.22,2-5.66-1.28-.37Zm769.93,75.57L800,580.07c.53,4.43.53,4.43,3.76,5Zm-46.42,439.2c-3.25.66-3.25.66-3.13,4Zm-8.75-469.88c-3.16.21-3.74,1.27-3.51,2.74.06.36,1,.6,1.49.88Zm-720-9.1-1.4-.22-.29,5.75h.66Zm-24,176.4-1,.18.82,4,.84-.15ZM772.29,996.93c2.23-1.22,3.94-1.56,4.07-4C773.76,992.88,773.33,994.52,772.29,996.93Zm-16.13,10.79c-2.5.57-3.13,1.92-3.74,3.94,2.69-.25,3.08-1.81,3.74-3.94ZM69.62,964l-2.38-2.23c-.21.25-.57.49-.6.76-.2,1.7.75,2,3,1.47ZM807.89,535.9l2.74,2.55C811.12,535.28,811.12,535.28,807.89,535.9Zm-88.45,534.91-.38-1c-1.71.4-3.42.78-5.09,1.18l.26,1ZM27.93,568.45h.56l.49-4.62h-.72ZM19.18,847.28H18l.77,3.3.4-.08ZM10.1,646c2.36-.87,2.27-1.86.31-3.34ZM70,1003.62l-.88.58,2.11,2.63.47-.35ZM794.22,529.27c2-.95,2.4-2.33,1.22-4.16Zm22.12,73.56-.46.54,1.12,1.49.59-.49Zm-7.87,4.78.22-.87a18.88,18.88,0,0,0-2.19-.64,5.68,5.68,0,0,0-.49,1.12c.78.14,1.6.26,2.42.39ZM765,536c-2.32-1.63-3.28-1.11-4.34,1.13,1.52-.41,2.56-.68,4.3-1.13Zm29.11,45.59,1,.91a22.74,22.74,0,0,0,1.43-1.88c0-.09-.36-.47-.55-.72Zm-2.22-47.28-.52-.35a4.71,4.71,0,0,0-1,1.2,4.09,4.09,0,0,0,0,1.48l.63.07Zm7.85,52-2.31-2.21-1.75,2.21Zm0,23.72c-.29-.36-.52-.79-.64-.76a5,5,0,0,0-1.14.54c.17.19.34.58.49.57a5.63,5.63,0,0,0,1.34-.35ZM28.92,601.13l.58,1a4.68,4.68,0,0,0,1-.8c.08-.1-.33-.76-.42-.74a6.38,6.38,0,0,0-1.12.53ZM764.58,496.21a7.19,7.19,0,0,0,1.38,1c.22.08.56-.2.85-.31-.24-.37-.4-.88-.73-1s-.72.13-1.45.31ZM59.32,985.54l.76-.17-.44-2-.82.19Zm651.2,70.92a4.84,4.84,0,0,0,.8-1.25,1.17,1.17,0,0,0-.41-.76c-.4.12-1,.31-1,.59A4.11,4.11,0,0,0,710.52,1056.46Zm88-478.18.91-1.21c-.37-.24-.75-.71-1.1-.67s-.62.55-.93.85ZM5.39,702.49l.79.26.37-2.37-.79-.11Z" transform="translate(0 0)" style="fill:#a5a5a5"/></svg>