<svg width="79" height="51" viewBox="0 0 79 51" fill="none" xmlns="http://www.w3.org/2000/svg">
<g clip-path="url(#clip0_24_96)">
<path d="M39.4205 0H39.5749C40.0343 0.231507 40.5096 0.42929 40.9972 0.59181L41.3137 0.714844C42.3252 1.18206 43.3599 1.5792 44.4023 1.97789L44.6401 2.06822C44.8547 2.16478 45.0678 2.26601 45.2856 2.35478L53.7219 5.78105L53.8763 5.83244C54.9125 6.29966 55.9704 6.72016 57.0328 7.12819L57.198 7.18582C58.1586 7.61877 59.133 8.01902 60.1229 8.37722C60.1785 8.45977 60.2773 8.45665 60.353 8.48001L67.7855 11.5169L67.9508 11.5714C68.8573 11.9919 69.7884 12.3501 70.7212 12.7099L71.03 12.8329C72.0415 13.2924 73.0762 13.6973 74.1186 14.096L74.3564 14.1863L77.2025 15.3575L77.3569 15.4073L79.0031 16.1237C73.5704 18.3399 68.2056 20.5249 62.8423 22.7193C62.2246 22.9716 61.5822 23.1647 61.0078 23.5151C60.7898 23.5613 60.5764 23.6269 60.37 23.7113C59.4357 24.163 58.4613 24.5243 57.4961 24.8981C55.836 25.5413 54.2083 26.2608 52.5452 26.8993C51.3901 27.3432 50.2473 27.8338 49.1015 28.315C48.2104 28.6888 47.2993 29.0252 46.4067 29.3943C45.5728 29.7379 44.7399 30.0857 43.9081 30.4377C42.5352 31.0202 41.1423 31.5544 39.7617 32.1213C39.6798 32.1599 39.5905 32.18 39.5 32.18C39.4095 32.18 39.3202 32.1599 39.2382 32.1213C38.3611 31.749 37.4778 31.3893 36.596 31.0311C35.0085 30.3832 33.4205 29.7374 31.8319 29.0937C30.4745 28.5424 29.1125 28.0035 27.7551 27.4475C26.532 26.9476 25.3182 26.4259 24.0936 25.9322C23.025 25.5023 21.9579 25.0647 20.8893 24.638C19.9303 24.2564 18.9945 23.8079 17.9984 23.5229C17.9181 23.4061 17.7838 23.3858 17.6648 23.336L15.1446 22.2972C15.2681 22.2567 15.3917 22.2084 15.5168 22.1773L39.6073 16.1112C40.2034 15.9555 40.4984 15.521 40.3795 14.9712C40.2636 14.4666 39.7834 14.2019 39.2043 14.3483C37.5962 14.747 35.9901 15.1498 34.3862 15.5568C27.4956 17.2793 20.6087 19.0059 13.7254 20.7367C13.3394 20.8333 12.9981 20.9719 12.8189 21.3597L8.83783 19.7509L8.61699 19.645L5.68289 18.4489L5.52846 18.3975C4.51388 17.9412 3.4854 17.5176 2.43993 17.1391C2.41041 17.1069 2.3742 17.0817 2.33388 17.0653C2.29357 17.0489 2.25016 17.0416 2.20675 17.0441L0.0108032 16.1097C0.420034 15.9399 0.758228 15.7982 1.09179 15.6627L35.132 1.77387C36.5682 1.18829 38.0121 0.641647 39.4205 0Z" fill="#1F2630"/>
<path d="M61.0047 23.5088C61.3065 24.9521 61.4007 26.4318 61.2842 27.9022C61.119 30.4641 60.5121 32.9186 59.15 35.1036C57.1425 38.3212 54.2841 40.5233 50.757 41.8362C48.6413 42.6242 46.433 42.9715 44.1969 43.1117C41.0683 43.3111 37.9303 43.3111 34.8016 43.1117C31.2158 42.8797 27.7767 42.1134 24.7268 40.0686C21.0993 37.6344 18.715 34.3514 17.9598 29.9548C17.5957 27.8588 17.592 25.7151 17.949 23.6178C17.9605 23.5799 17.976 23.5433 17.9954 23.5088C18.9914 23.7938 19.9272 24.2423 20.8862 24.6239C21.9549 25.0506 23.0219 25.4882 24.0906 25.9181C25.3152 26.4118 26.529 26.9335 27.752 27.4334C29.1094 27.9879 30.4715 28.5236 31.8289 29.0796C33.4185 29.7223 35.0065 30.3681 36.593 31.017C37.4747 31.3783 38.358 31.7381 39.2352 32.1072C39.3171 32.1458 39.4065 32.1659 39.4969 32.1659C39.5874 32.1659 39.6768 32.1458 39.7587 32.1072C41.1393 31.5403 42.5384 31.0061 43.9051 30.4236C44.7359 30.0716 45.5687 29.7238 46.4037 29.3802C47.2963 29.0111 48.2074 28.6747 49.0984 28.3009C50.2443 27.8212 51.387 27.3291 52.5421 26.8852C54.2053 26.2467 55.833 25.5272 57.493 24.884C58.4582 24.5102 59.4326 24.1489 60.3669 23.6972C60.5736 23.6155 60.787 23.5524 61.0047 23.5088Z" fill="#1A1A1A"/>
<path d="M11.4847 34.3529L11.4986 34.1131L11.511 33.716L11.5249 33.4045C11.5419 33.2861 11.5681 33.1693 11.5743 33.0509C11.6638 31.3845 11.7611 29.7166 11.8337 28.0486C11.8631 27.4007 12.0715 26.8603 12.6058 26.4694C12.7155 26.3884 12.8251 26.3137 12.7711 26.1579C12.7711 24.696 12.7711 23.2347 12.7711 21.7739L12.8282 21.3752C13.0074 20.9858 13.3486 20.8472 13.7347 20.7522C20.618 19.0235 27.5008 17.2922 34.3831 15.5583C35.9891 15.1534 37.5952 14.7505 39.2012 14.3498C39.7803 14.2065 40.2606 14.4712 40.3764 14.9727C40.503 15.5225 40.2081 15.9632 39.6042 16.1127L15.5137 22.1788C15.3886 22.2099 15.2651 22.2582 15.1415 22.2987C14.5841 22.3781 14.5841 22.3781 14.5841 22.9217C14.5841 23.9713 14.5841 25.021 14.5841 26.0707C14.5771 26.164 14.5925 26.2576 14.6291 26.3435C14.6656 26.4295 14.7222 26.5052 14.7941 26.5644C14.9826 26.7212 15.1354 26.9171 15.242 27.1388C15.3486 27.3606 15.4065 27.6029 15.4118 27.8492C15.5384 30.5404 15.6686 33.2321 15.8025 35.9243C15.9538 38.9467 16.1067 41.9722 16.2611 45.0008C16.3641 47.0036 16.4614 49.0054 16.553 51.0061H16.4295C15.3299 50.5016 14.1856 50.1138 13.066 49.6621C12.3835 49.388 11.6994 49.117 11.0075 48.8647C10.9606 48.8548 10.916 48.8355 10.8765 48.808C10.8369 48.7806 10.8032 48.7455 10.7772 48.7048C10.7512 48.6641 10.7334 48.6186 10.725 48.5709C10.7166 48.5232 10.7176 48.4744 10.728 48.4271C10.8531 46.2701 10.9658 44.1116 11.0847 41.953C11.1759 40.2726 11.2716 38.5906 11.3596 36.9086C11.3998 36.1424 11.4276 35.373 11.4615 34.6052C11.4827 34.5672 11.4957 34.525 11.4997 34.4816C11.5037 34.4381 11.4986 34.3943 11.4847 34.3529Z" fill="#FF8B00"/>
</g>
<defs>
<clipPath id="clip0_24_96">
<rect width="79" height="51" fill="white"/>
</clipPath>
</defs>
</svg>
