<svg width="79" height="55" viewBox="0 0 79 55" fill="none" xmlns="http://www.w3.org/2000/svg">
<g clip-path="url(#clip0_28_255)">
<path d="M32.9138 5.99844C35.447 3.36016 38.9676 1.71875 42.8661 1.71875C48.0526 1.71875 52.5693 4.61484 54.9823 8.90312C57.0775 7.96641 59.396 7.44219 61.8261 7.44219C71.1773 7.44219 78.751 15.0906 78.751 24.5352C78.751 33.9797 71.1687 41.6281 61.8261 41.6281C60.684 41.6281 59.5677 41.5164 58.4943 41.293C56.3734 45.0742 52.3289 47.6352 47.692 47.6352C45.7513 47.6352 43.9137 47.1883 42.2822 46.3891C40.1354 51.4508 35.1207 55 29.2901 55C23.4596 55 18.0326 51.15 16.0404 45.7531C15.1731 45.9336 14.2715 46.0367 13.3441 46.0367C6.10532 46.0367 0.240433 40.107 0.240433 32.7852C0.240433 27.8781 2.87663 23.5984 6.79228 21.3039C5.98511 19.4477 5.53858 17.3937 5.53858 15.2453C5.53858 6.82344 12.3652 0 20.789 0C25.7351 0 30.1316 2.35469 32.9138 5.99844Z" fill="#0D9DDA"/>
<path d="M11.6181 28.5227C11.5666 28.6516 11.6353 28.6774 11.6525 28.7032C11.7985 28.8063 11.953 28.8836 12.099 28.9782C12.8976 29.3993 13.6533 29.5282 14.4433 29.5282C16.0576 29.5282 17.0537 28.6688 17.0537 27.2938V27.268C17.0537 25.9961 15.9202 25.5321 14.864 25.1969L14.7266 25.154C13.928 24.8961 13.2411 24.6727 13.2411 24.1399V24.1141C13.2411 23.6672 13.6447 23.3321 14.2715 23.3321C14.9671 23.3321 15.7914 23.5641 16.3152 23.8563C16.3152 23.8563 16.4698 23.9594 16.5299 23.8047C16.5642 23.7188 16.8304 22.9969 16.8562 22.9196C16.8905 22.8336 16.8304 22.7735 16.7789 22.7391C16.1692 22.3696 15.3363 22.1204 14.469 22.1204H14.3059C12.8289 22.1204 11.7985 23.0141 11.7985 24.286V24.3118C11.7985 25.661 12.932 26.0907 13.9967 26.4L14.1685 26.4516C14.9413 26.6922 15.6111 26.8985 15.6111 27.4399V27.4657C15.6111 27.9641 15.1731 28.3336 14.4776 28.3336C14.2028 28.3336 13.3355 28.3336 12.3996 27.7321C12.2879 27.6633 12.2192 27.6204 12.1334 27.5688C12.0904 27.543 11.9702 27.4915 11.9187 27.6375L11.601 28.5227H11.6181Z" fill="white"/>
<path d="M35.1893 28.5227C35.1378 28.6516 35.2065 28.6774 35.2237 28.7032C35.3697 28.8063 35.5242 28.8836 35.6702 28.9782C36.4688 29.3993 37.2245 29.5282 38.0145 29.5282C39.6288 29.5282 40.6249 28.6688 40.6249 27.2938V27.268C40.6249 25.9961 39.5 25.5321 38.4352 25.1969L38.2978 25.154C37.4992 24.8961 36.8123 24.6727 36.8123 24.1399V24.1141C36.8123 23.6672 37.2159 23.3321 37.8427 23.3321C38.5383 23.3321 39.3626 23.5641 39.8864 23.8563C39.8864 23.8563 40.041 23.9594 40.1011 23.8047C40.1354 23.7188 40.4016 22.9969 40.4274 22.9196C40.4617 22.8336 40.4016 22.7735 40.3501 22.7391C39.7404 22.3696 38.9075 22.1204 38.0402 22.1204H37.8771C36.4001 22.1204 35.3697 23.0141 35.3697 24.286V24.3118C35.3697 25.661 36.5032 26.0907 37.5679 26.4L37.7397 26.4516C38.5125 26.6922 39.1823 26.8985 39.1823 27.4399V27.4657C39.1823 27.9641 38.7443 28.3336 38.0488 28.3336C37.774 28.3336 36.9067 28.3336 35.9708 27.7321C35.8591 27.6633 35.7904 27.6204 35.7046 27.5688C35.6788 27.5516 35.5414 27.5 35.4899 27.6375L35.1722 28.5227H35.1893Z" fill="white"/>
<path d="M52.6295 24.3719C52.5007 23.925 52.2946 23.5297 52.0198 23.2031C51.745 22.8766 51.4015 22.6102 50.9894 22.4211C50.5772 22.232 50.0963 22.1289 49.5467 22.1289C48.9972 22.1289 48.5163 22.2234 48.1041 22.4211C47.692 22.6102 47.3485 22.8766 47.0737 23.2031C46.7989 23.5297 46.5928 23.925 46.464 24.3719C46.3352 24.8188 46.2665 25.3 46.2665 25.8156C46.2665 26.3313 46.3352 26.8211 46.464 27.2594C46.5928 27.7062 46.7989 28.1016 47.0737 28.4281C47.3485 28.7547 47.7005 29.0211 48.1041 29.2102C48.5163 29.3992 48.9972 29.4937 49.5467 29.4937C50.0963 29.4937 50.5772 29.3992 50.9894 29.2102C51.4015 29.0211 51.745 28.7633 52.0198 28.4281C52.2946 28.1016 52.5007 27.7062 52.6295 27.2594C52.7583 26.8125 52.827 26.3313 52.827 25.8156C52.827 25.3 52.7583 24.8102 52.6295 24.3719ZM51.2813 25.8156C51.2813 26.5977 51.1353 27.2078 50.852 27.6461C50.5686 28.0758 50.1392 28.282 49.5467 28.282C48.9542 28.282 48.5249 28.0758 48.2415 27.6461C47.9582 27.2078 47.8122 26.5977 47.8122 25.8156C47.8122 25.0336 47.9582 24.4234 48.2329 23.9938C48.5163 23.5641 48.9371 23.3578 49.5382 23.3578C50.1392 23.3578 50.56 23.5641 50.8434 23.9938C51.1267 24.4234 51.2727 25.0336 51.2727 25.8156" fill="white"/>
<path fill-rule="evenodd" clip-rule="evenodd" d="M63.6723 28.0757C63.6293 27.9468 63.5005 27.9984 63.5005 27.9984C63.303 28.0757 63.097 28.1445 62.8737 28.1789C62.6504 28.2132 62.4014 28.2304 62.1352 28.2304C61.4826 28.2304 60.9674 28.0328 60.5981 27.6546C60.2289 27.2679 60.0142 26.6492 60.0228 25.8156C60.0228 25.0507 60.2117 24.4835 60.538 24.0453C60.8643 23.607 61.3624 23.3921 62.0322 23.3921C62.5903 23.3921 63.0111 23.4523 63.4576 23.5984C63.4576 23.5984 63.5607 23.6414 63.6122 23.5039C63.7324 23.1773 63.8183 22.9453 63.9471 22.5843C63.9814 22.4812 63.8955 22.4382 63.8612 22.4296C63.6895 22.3609 63.2773 22.2492 62.9682 22.2062C62.6762 22.1632 62.3413 22.1375 61.9635 22.1375C61.3967 22.1375 60.8987 22.232 60.4608 22.4296C60.0314 22.6187 59.6708 22.8851 59.3788 23.2117C59.0868 23.5382 58.8722 23.9335 58.7262 24.3804C58.5802 24.8273 58.5029 25.3085 58.5029 25.8328C58.5029 26.95 58.8035 27.8523 59.396 28.514C59.9885 29.1757 60.8815 29.5109 62.0493 29.5109C62.7363 29.5109 63.4404 29.3734 63.9557 29.1671C63.9557 29.1671 64.0501 29.1242 64.0072 29.0039L63.6809 28.0929L63.6723 28.0757Z" fill="white"/>
<path fill-rule="evenodd" clip-rule="evenodd" d="M70.5504 24.1227C70.4388 23.693 70.1554 23.2547 69.9665 23.057C69.6746 22.7391 69.3912 22.5242 69.0992 22.3953C68.73 22.232 68.2835 22.1289 67.794 22.1289C67.2273 22.1289 66.7121 22.2234 66.2913 22.4211C65.8705 22.6188 65.5185 22.8852 65.2437 23.2203C64.9689 23.5555 64.7628 23.9508 64.6254 24.4062C64.4966 24.8531 64.4279 25.343 64.4279 25.8586C64.4279 26.3742 64.4966 26.8727 64.634 27.3109C64.7714 27.7578 64.9947 28.1445 65.2952 28.4711C65.5958 28.7977 65.9822 29.0555 66.4373 29.2273C66.8924 29.4078 67.4505 29.4937 68.086 29.4937C69.3998 29.4937 70.0953 29.193 70.3787 29.0383C70.4302 29.0125 70.4732 28.9609 70.4216 28.8234L70.1211 27.9898C70.0782 27.8695 69.9493 27.9125 69.9493 27.9125C69.623 28.0328 69.1593 28.2477 68.0774 28.2477C67.3733 28.2477 66.8495 28.0414 66.5232 27.7148C66.1883 27.3797 66.0251 26.8898 65.9908 26.2023H70.5418C70.5418 26.2023 70.6621 26.2023 70.6707 26.0906C70.6707 26.0391 70.8252 25.1539 70.5333 24.1312L70.5504 24.1227ZM66.0251 25.0766C66.0852 24.6469 66.2054 24.2859 66.3943 24.0023C66.6691 23.5727 67.0985 23.3406 67.6996 23.3406C68.3006 23.3406 68.6871 23.5727 68.9704 24.0023C69.1593 24.2859 69.2366 24.6555 69.271 25.0766H66.0251Z" fill="white"/>
<path fill-rule="evenodd" clip-rule="evenodd" d="M34.1074 24.1227C33.9958 23.693 33.7124 23.2547 33.5235 23.057C33.2315 22.7391 32.9482 22.5242 32.6562 22.3953C32.287 22.232 31.8404 22.1289 31.351 22.1289C30.7842 22.1289 30.269 22.2234 29.8483 22.4211C29.4275 22.6188 29.0754 22.8852 28.8007 23.2203C28.5259 23.5555 28.3198 23.9508 28.1824 24.4062C28.0536 24.8531 27.9849 25.343 27.9849 25.8586C27.9849 26.3742 28.0536 26.8727 28.191 27.3109C28.3284 27.7578 28.5516 28.1445 28.8522 28.4711C29.1527 28.7977 29.5391 29.0555 29.9942 29.2273C30.4494 29.4078 31.0075 29.4937 31.6429 29.4937C32.9567 29.4937 33.6523 29.193 33.9357 29.0383C33.9872 29.0125 34.0301 28.9609 33.97 28.8234L33.6695 27.9898C33.6265 27.8695 33.4977 27.9125 33.4977 27.9125C33.1714 28.0328 32.7077 28.2477 31.6258 28.2477C30.9216 28.2477 30.3978 28.0414 30.0715 27.7148C29.7366 27.3797 29.5735 26.8898 29.5391 26.2023H34.0902C34.0902 26.2023 34.2104 26.2023 34.219 26.0906C34.219 26.0391 34.3736 25.1539 34.0816 24.1312L34.1074 24.1227ZM29.5821 25.0766C29.6422 24.6469 29.7624 24.2859 29.9513 24.0023C30.2347 23.5727 30.6554 23.3406 31.2565 23.3406C31.8576 23.3406 32.244 23.5727 32.536 24.0023C32.7249 24.2859 32.8022 24.6555 32.8365 25.0766H29.5907H29.5821Z" fill="white"/>
<path d="M21.5533 24.8531C21.3643 24.8359 21.1325 24.8359 20.8405 24.8359C20.4541 24.8359 20.0763 24.8875 19.7157 24.982C19.3636 25.0766 19.0373 25.2227 18.7625 25.4203C18.4877 25.618 18.2645 25.8672 18.1013 26.168C17.9382 26.4688 17.8609 26.8211 17.8609 27.2164C17.8609 27.6117 17.9296 27.9727 18.067 28.2563C18.2044 28.5398 18.4018 28.7805 18.6595 28.9695C18.9085 29.15 19.2262 29.2875 19.5868 29.3734C19.9475 29.4508 20.3511 29.4937 20.789 29.4937C21.2527 29.4937 21.725 29.4508 22.1715 29.382C22.618 29.3047 23.1676 29.193 23.3136 29.1586C23.4682 29.1242 23.6313 29.0813 23.6313 29.0813C23.7429 29.0555 23.7343 28.9352 23.7343 28.9352V24.7672C23.7343 23.8562 23.4853 23.1773 23.0045 22.7562C22.5236 22.3352 21.828 22.1289 20.9178 22.1289C20.5743 22.1289 20.0248 22.1719 19.6985 22.2406C19.6985 22.2406 18.7024 22.4297 18.2988 22.7562C18.2988 22.7562 18.2129 22.8078 18.2559 22.9367L18.5822 23.8047C18.6251 23.9164 18.7282 23.882 18.7282 23.882C18.7282 23.882 18.7625 23.8648 18.8054 23.8477C19.6813 23.375 20.789 23.3836 20.789 23.3836C21.2785 23.3836 21.6563 23.4867 21.9139 23.6758C22.1629 23.8648 22.2917 24.157 22.2917 24.7586V24.9477C21.9053 24.8875 21.5447 24.8617 21.5447 24.8617L21.5533 24.8531ZM19.7414 28.05C19.5611 27.9039 19.5353 27.8695 19.4752 27.7836C19.3893 27.6461 19.3378 27.4484 19.3378 27.1906C19.3378 26.7867 19.4666 26.5031 19.7414 26.3055C19.7414 26.3055 20.1364 25.9617 21.0638 25.9789C21.7164 25.9789 22.3003 26.082 22.3003 26.082V28.1531C22.3003 28.1531 21.725 28.2734 21.0724 28.3164C20.145 28.368 19.7328 28.05 19.7414 28.05Z" fill="white"/>
<path fill-rule="evenodd" clip-rule="evenodd" d="M58.2539 22.5071C58.2882 22.4039 58.2196 22.3524 58.1852 22.3438C58.1079 22.318 57.7215 22.2321 57.421 22.2149C56.8456 22.1805 56.5279 22.275 56.2446 22.4039C55.9612 22.5328 55.6521 22.7391 55.4717 22.9711V22.4125C55.4717 22.3352 55.4202 22.275 55.3429 22.275H54.1751C54.0978 22.275 54.0463 22.3352 54.0463 22.4125V29.2102C54.0463 29.2875 54.1064 29.3477 54.1837 29.3477H55.3773C55.4546 29.3477 55.5147 29.2875 55.5147 29.2102V25.8157C55.5147 25.3602 55.5662 24.9047 55.6692 24.6211C55.7637 24.3375 55.9011 24.1141 56.0642 23.9508C56.2274 23.7875 56.4163 23.6758 56.6224 23.6157C56.8371 23.5469 57.0689 23.5297 57.2321 23.5297C57.4725 23.5297 57.7301 23.5899 57.7301 23.5899C57.816 23.5985 57.8675 23.5469 57.8933 23.4696C57.9705 23.2633 58.1938 22.636 58.2367 22.5157L58.2539 22.5071Z" fill="white"/>
<path fill-rule="evenodd" clip-rule="evenodd" d="M47.0308 19.3617C46.8848 19.3188 46.756 19.2844 46.5842 19.2586C46.4125 19.2242 46.1978 19.207 45.966 19.207C45.1416 19.207 44.4976 19.4391 44.0425 19.9031C43.5874 20.3586 43.2783 21.0547 43.1323 21.9656L43.0808 22.275H42.0503C42.0503 22.275 41.9215 22.275 41.8958 22.4039L41.724 23.3492C41.7154 23.4437 41.7498 23.4953 41.87 23.4953H42.8747L41.8528 29.193C41.7755 29.6484 41.6811 30.0266 41.578 30.3187C41.475 30.6023 41.3805 30.8086 41.2603 30.9633C41.1401 31.1094 41.0371 31.2211 40.8482 31.2813C40.6936 31.3328 40.5133 31.3586 40.3158 31.3586C40.2041 31.3586 40.0582 31.3414 39.9465 31.3156C39.8349 31.2984 39.7834 31.2727 39.6975 31.2383C39.6975 31.2383 39.5773 31.1953 39.5344 31.3156C39.5 31.4102 39.2252 32.1492 39.1995 32.2437C39.1651 32.3297 39.2166 32.407 39.2682 32.4242C39.4055 32.4758 39.5 32.5016 39.6803 32.5445C39.9294 32.6047 40.144 32.6047 40.3501 32.6047C40.7709 32.6047 41.1487 32.5445 41.4664 32.4328C41.7841 32.3211 42.0589 32.1148 42.3079 31.8484C42.5741 31.5563 42.7373 31.2469 42.9004 30.8258C43.055 30.4133 43.1924 29.8977 43.304 29.2961L44.3259 23.4867H45.8286C45.8286 23.4867 45.9574 23.4867 45.9832 23.3578L46.1549 22.4125C46.1635 22.318 46.1291 22.2664 46.0089 22.2664H44.5577C44.5577 22.2664 44.635 21.725 44.7982 21.2352C44.8668 21.0289 45.0042 20.8656 45.1159 20.7453C45.2275 20.6336 45.3563 20.5563 45.4937 20.5047C45.6397 20.4617 45.8028 20.4359 45.9832 20.4359C46.1205 20.4359 46.2579 20.4531 46.361 20.4703C46.4984 20.4961 46.5585 20.5133 46.5928 20.5305C46.7388 20.5734 46.7646 20.5305 46.7903 20.4617L47.1424 19.5078C47.1767 19.4047 47.0909 19.3617 47.0565 19.3531L47.0308 19.3617Z" fill="white"/>
<path fill-rule="evenodd" clip-rule="evenodd" d="M26.7054 29.2101C26.7054 29.2874 26.6539 29.3476 26.5766 29.3476H25.3659C25.2886 29.3476 25.2371 29.2874 25.2371 29.2101V19.4905C25.2371 19.4132 25.2886 19.353 25.3659 19.353H26.5766C26.6539 19.353 26.7054 19.4132 26.7054 19.4905V29.2101Z" fill="white"/>
</g>
<defs>
<clipPath id="clip0_28_255">
<rect width="79" height="55" fill="white"/>
</clipPath>
</defs>
</svg>
