<svg width="77" height="21" viewBox="0 0 77 21" fill="none" xmlns="http://www.w3.org/2000/svg">
<g clip-path="url(#clip0_27_179)">
<path d="M10.6866 0.469937C18.2029 1.16377 25.7357 1.70663 33.4757 1.85591L35.4867 1.88645L35.5459 1.94752C35.5459 2.99817 35.5459 4.04769 35.5459 5.09608C35.1578 5.11304 34.898 5.30134 34.9095 5.71866C34.926 6.38536 34.6037 6.71107 34.0101 6.8875C33.5349 7.0283 33.4296 7.2658 33.6319 7.72553C33.8769 8.28535 33.8095 8.70267 33.3474 9.1149C33.2742 9.17461 33.2149 9.25042 33.1738 9.3368C33.1326 9.42319 33.1107 9.51797 33.1096 9.61421C33.1085 9.71045 33.1282 9.80574 33.1674 9.8931C33.2065 9.98046 33.2641 10.0577 33.3359 10.1192C33.7832 10.5212 33.9081 10.9301 33.6352 11.4763C33.4494 11.8512 33.5398 12.1651 33.9262 12.3585C33.758 12.4226 33.5792 12.4519 33.4 12.445C31.5616 12.4806 29.7216 12.4009 27.8832 12.5128C26.5447 12.5943 25.2029 12.4993 23.8611 12.5892C22.5753 12.6757 21.2828 12.5773 19.9936 12.6706C18.8426 12.7554 17.6718 12.7011 16.5093 12.7418C14.4308 12.8148 12.349 12.8589 10.2689 12.9115C8.49469 12.9505 6.72044 13.0591 4.94454 13.0116C4.84917 12.8114 4.90014 12.5892 4.86397 12.3788C4.7505 10.3216 4.7505 8.25937 4.86397 6.20214C4.93632 5.42858 5.00045 4.6567 5.08431 3.88483C5.18297 2.97046 5.30136 2.05779 5.41318 1.14342C5.4214 1.12136 5.42304 1.09761 5.43456 1.06877C5.44937 1.03927 5.46043 1.0079 5.46744 0.97547C5.48348 0.903432 5.49447 0.830297 5.50033 0.756632C5.51513 0.644668 5.53486 0.532704 5.5513 0.417347C5.57263 0.309149 5.6297 0.211943 5.71278 0.142329C5.79585 0.0727148 5.89977 0.0350099 6.00679 0.0356526L6.57902 0.089938C6.90789 0.130652 7.19072 0.151009 7.51301 0.191723" fill="#F2F2F2"/>
<path d="M8.51611 0.205078L9.75266 0.278024L8.51611 0.205078Z" fill="#F2F2F2"/>
<path d="M55.7319 1.2878C60.6864 0.968874 65.4928 0.58209 70.4752 0.0409319C70.7613 0.0867353 71.0441 -0.0557642 71.3303 0.0256641L71.3944 0.414145C71.3802 0.441041 71.3745 0.471817 71.378 0.502211C71.3816 0.532605 71.3942 0.561113 71.4141 0.583787L71.4684 0.989231L71.4914 1.12495C71.4832 1.24241 71.4832 1.36034 71.4914 1.4778C71.6361 2.46342 71.7117 3.45752 71.8203 4.44654C71.8828 5.0318 71.8581 5.63403 72.0159 6.20064C72.0159 8.26179 72.1705 10.3246 71.9551 12.3841L71.9403 13.0067C70.4703 13.0423 69.0068 12.9168 67.54 12.8676C65.9203 12.815 64.299 12.7556 62.6793 12.7115C60.6897 12.6538 58.6984 12.6131 56.7087 12.5419C54.7799 12.4791 52.851 12.4553 50.9222 12.457C48.5724 12.457 46.2227 12.3213 43.8713 12.3739C43.7312 12.3968 43.5879 12.366 43.4684 12.2874C43.8416 12.0652 43.7677 11.7411 43.6328 11.4273C43.4273 10.9625 43.4684 10.5995 43.8614 10.2398C44.3843 9.73089 44.3711 9.52223 43.8367 9.00991C43.5078 8.69777 43.4043 8.37884 43.5966 7.95813C43.6379 7.86168 43.6694 7.76105 43.6904 7.65786C43.8203 7.14894 43.6739 6.95724 43.1543 6.9284C43.1352 6.92717 43.1166 6.92136 43.1 6.91144C42.5623 6.61117 42.3732 6.1226 42.3453 5.51528C42.3405 5.46242 42.3249 5.41122 42.2993 5.36514C42.2737 5.31905 42.2389 5.27915 42.1972 5.24813C42.1554 5.2171 42.1077 5.19567 42.0572 5.18528C42.0067 5.17488 41.9547 5.17577 41.9046 5.18787L41.7221 5.12341C41.7221 4.04449 41.7182 2.96556 41.7106 1.88664L43.0261 1.86289C47.2833 1.8103 51.5537 1.56093 55.7319 1.2878Z" fill="#F2F2F2"/>
<path d="M4.93799 13.0101C6.71389 13.0576 8.48814 12.949 10.2624 12.91C12.3425 12.8625 14.4242 12.8184 16.5109 12.7403C17.6735 12.6996 18.8377 12.7539 19.9953 12.6691C21.2845 12.5758 22.5769 12.6691 23.8628 12.5876C25.2046 12.4977 26.5464 12.5876 27.8849 12.5113C29.7233 12.3993 31.5633 12.4791 33.4017 12.4435C33.5804 12.4506 33.7586 12.4212 33.9262 12.3569C34.7402 12.5707 34.7994 12.6368 34.8948 13.463C34.8975 13.5807 34.9229 13.6967 34.9694 13.8041C35.016 13.9116 35.0829 14.0084 35.1661 14.089L34.0479 16.7948C29.5391 16.8575 25.0336 17.0374 20.5314 17.3037C16.3481 17.5536 12.1715 17.8861 8.00141 18.3012C7.51797 18.3487 7.03618 18.4081 6.55439 18.4708C6.27147 18.4642 5.98881 18.4927 5.71248 18.5557C5.43458 18.2164 5.50693 17.7719 5.39347 17.3834C5.38361 17.2138 5.38032 17.0441 5.36223 16.8745C5.21753 15.5852 4.98074 14.3095 4.93799 13.0101Z" fill="#D9D9D9"/>
<path d="M49.2269 16.8845L46.8558 16.8149L49.2269 16.8845Z" fill="#D9D9D9"/>
<path d="M52.8313 17.0712C52.0914 17.0085 51.3514 16.9847 50.6115 16.9644L52.8313 17.0712Z" fill="#D9D9D9"/>
<path d="M43.174 16.7438C42.9192 16.2146 42.6988 15.6683 42.4883 15.117C42.3075 14.6454 42.0789 14.2535 42.3453 13.6648C42.5558 13.1966 42.5525 12.6368 43.0902 12.3739L43.2546 12.2856H43.2809H43.47C43.5896 12.3643 43.7329 12.395 43.8729 12.3722C46.2243 12.3196 48.5741 12.457 50.9239 12.4553C52.8527 12.4553 54.7815 12.4773 56.7103 12.5401C58.7 12.6046 60.6913 12.6453 62.681 12.7097C64.3007 12.7539 65.922 12.8132 67.5417 12.8658C69.0084 12.915 70.4719 13.0355 71.942 13.0049C71.942 13.122 71.942 13.2407 71.9321 13.3578C71.7885 14.698 71.6443 16.0381 71.4996 17.3783L71.3516 18.4759L71.1 18.5743L70.952 18.5505C70.8073 18.5302 70.7991 18.5251 70.7153 18.5166C67.2621 18.2265 63.8353 17.777 60.3838 17.5191C58.9154 17.4207 57.4519 17.3054 55.9868 17.229" fill="#D9D9D9"/>
<path d="M43.2727 12.2788H43.2464L43.082 12.367C42.2976 12.5366 42.1907 12.6435 42.0954 13.4544C42.0906 13.6919 41.9976 13.9184 41.8355 14.0871C41.3094 14.116 41.3126 14.1143 41.5198 14.6266C42.2291 16.3728 42.9373 18.1201 43.6443 19.8685H43.4223C42.6857 18.059 41.9507 16.2495 41.2173 14.44C41.0249 13.965 40.6812 13.8988 40.3688 14.2975C40.1715 14.552 40.058 14.876 39.785 15.0728C39.688 15.1423 39.7423 15.2424 39.785 15.3221C40.4998 17.0547 41.2156 18.7879 41.9326 20.5217L41.7681 20.6913C41.7204 20.5844 41.6695 20.4793 41.6251 20.3707C40.9355 18.7048 40.2482 17.0389 39.5631 15.373C39.3756 14.8641 38.9053 14.7521 38.4794 14.5706L38.4893 14.1754C38.6301 14.1813 38.766 14.231 38.879 14.3179C39.591 14.7538 39.6814 14.7403 40.1287 14.0345C40.1945 13.9005 40.3016 13.7929 40.4331 13.7284C40.5647 13.6639 40.7132 13.6463 40.8555 13.6783C41.579 13.7987 41.7172 13.6783 41.8142 12.9115C41.8191 12.7474 41.8764 12.5896 41.9772 12.4626C42.078 12.3356 42.2167 12.2465 42.3716 12.2092C43.0507 11.9988 43.1297 11.8207 42.8846 11.1065C42.7893 10.8266 42.7613 10.5738 42.9554 10.3313L43.0343 10.2515L43.1116 10.1701L43.2102 10.0412C43.5309 9.72903 43.5802 9.49662 43.2694 9.21671C42.8353 8.82314 42.7087 8.42788 42.957 7.85958C43.1214 7.47958 42.9915 7.19628 42.5919 7.09788C42.0197 6.95369 41.8043 6.6144 41.7698 6.03762C41.75 5.63726 41.5182 5.44218 41.1499 5.51682C40.5974 5.62878 40.2356 5.46932 39.9577 4.94852C39.7357 4.5295 39.5071 4.51593 39.0928 4.76191C38.8971 4.87896 38.7261 5.05539 38.4778 5.05709C38.4778 4.91798 38.4778 4.78057 38.4778 4.64147C38.759 4.59057 38.981 4.41245 39.221 4.26995C39.6223 4.02906 39.8179 4.07825 40.0794 4.46334L40.3852 4.9095C40.4168 4.97465 40.4632 5.03093 40.5205 5.07348C40.5778 5.11604 40.6442 5.14359 40.7141 5.15378C40.9587 5.18628 41.2072 5.16371 41.4425 5.08762L41.7089 5.1012L41.8915 5.16566C41.9989 5.3137 42.0633 5.4902 42.0773 5.67459C42.0493 6.40405 42.4308 6.76878 43.0869 6.89262C43.1035 6.90254 43.122 6.90835 43.1412 6.90958C43.5079 7.1369 43.4947 7.46601 43.3336 7.8019C43.0918 8.30065 43.1889 8.68234 43.5934 9.05725C44.0702 9.50002 44.0636 9.73582 43.5786 10.1955C43.2053 10.545 43.0853 10.9047 43.3188 11.383C43.47 11.6884 43.5095 11.9971 43.2727 12.2788Z" fill="#DFC245"/>
<path d="M41.9342 20.5319C41.2184 18.7981 40.5025 17.0649 39.7867 15.3323C39.7505 15.2475 39.6962 15.1525 39.7867 15.0829C40.0596 14.8862 40.1731 14.5621 40.3704 14.3077C40.6828 13.909 41.0282 13.9684 41.2189 14.4502C41.949 16.2597 42.684 18.0692 43.424 19.8787C43.1421 19.8458 42.8568 19.8886 42.5958 20.0031C42.3347 20.1175 42.1068 20.2997 41.9342 20.5319Z" fill="#E10B14"/>
<path d="M35.1727 20.3895C35.1611 20.3895 35.1463 20.3895 35.1381 20.3726C34.7649 19.8636 34.2485 19.7296 33.6582 19.7737C34.3603 17.9908 35.0691 16.2112 35.7548 14.4215C35.8583 14.1535 35.9948 14.0398 36.2481 14.0415C36.4688 14.1407 36.6498 14.3149 36.7611 14.5352C36.891 14.732 36.9617 14.9915 37.2199 15.0729C37.2297 15.1239 37.2297 15.1764 37.2199 15.2273C36.5413 16.9498 35.8589 18.6705 35.1727 20.3895Z" fill="#E10B14"/>
<path d="M76.806 6.82324C77.0592 8.47382 77.0658 10.1547 76.8257 11.8073C76.3044 11.6767 75.7733 11.7717 75.2471 11.7378C75.3112 11.1783 75.3376 10.6148 75.3261 10.0515C75.3178 8.976 75.3458 7.90047 75.2504 6.82833L76.806 6.82324Z" fill="#D0D0D2"/>
<path d="M0.16124 11.7326C-0.0599848 10.0795 -0.0500171 8.40217 0.190838 6.75195C0.694009 6.89954 1.21034 6.80454 1.72173 6.83169C1.60375 8.4693 1.60375 10.1137 1.72173 11.7513L0.16124 11.7326Z" fill="#D0D0D2"/>
<path d="M4.56469 17.4477C3.43173 17.7124 3.43173 17.7107 3.17028 16.5842C3.1489 16.4943 3.12424 16.4146 3.10286 16.3179C2.87265 15.0049 2.58818 13.7003 2.49774 12.3652H4.01712L4.03028 12.3788C4.0681 12.8351 4.09605 13.2915 4.14538 13.7461C4.28022 14.9794 4.42492 16.2144 4.56469 17.4477Z" fill="#D0D0D2"/>
<path d="M73.8757 16.3367C73.8034 16.676 73.7245 17.0034 73.6603 17.3393C73.6242 17.5259 73.5469 17.6226 73.3496 17.5904C73.0355 17.5395 72.7198 17.4971 72.4041 17.4513C72.4698 16.9424 72.5438 16.4334 72.5981 15.9245C72.7247 14.737 72.9434 13.5699 72.9401 12.3739L72.9566 12.3569L74.4809 12.3722C74.4102 13.7141 74.1257 15.0186 73.8757 16.3367Z" fill="#D0D0D2"/>
<path d="M3.42353 0.960298C3.42783 0.962211 3.43247 0.963199 3.43715 0.963203C3.44184 0.963207 3.44648 0.962227 3.45079 0.960322C3.45509 0.958418 3.45898 0.955629 3.46221 0.952125C3.46544 0.948621 3.46794 0.944476 3.46957 0.939941L3.71129 0.958602C3.89217 0.975566 3.90039 0.982352 4.15691 0.992531L4.55484 1.02985C4.60417 1.04512 4.59431 1.07735 4.59102 1.10789C4.56471 1.31655 4.53675 1.52521 4.5088 1.73387C4.31148 3.21824 4.14046 4.706 4.02536 6.20054H2.56024C2.55586 5.89827 2.5729 5.59606 2.61122 5.29635C2.78388 4.25984 2.94009 3.22163 3.11275 2.18511" fill="#EBECEC"/>
<path d="M3.19495 1.93908L3.24825 1.69141L3.19495 1.93908Z" fill="#EBECEC"/>
<path d="M72.4024 1.04489L73.5304 0.90918L73.6439 1.04998C73.7162 1.4215 73.7886 1.79471 73.8626 2.16623C73.8757 2.26801 73.8873 2.37319 73.9021 2.47498C74.0895 3.68622 74.3954 4.87881 74.4134 6.1155C73.9547 6.28514 73.4795 6.1596 73.0141 6.20201H72.9467C72.944 5.62606 72.9 5.0511 72.8151 4.48184C72.6792 3.33732 72.5416 2.19167 72.4024 1.04489Z" fill="#EBECEC"/>
<path d="M76.806 6.82283H75.2504C75.2504 6.79908 75.2504 6.77533 75.2422 6.75158C75.2718 6.33935 75.1748 5.94069 75.1271 5.53694C74.9923 4.40203 74.7177 3.28748 74.6338 2.1441C75.9279 1.93374 75.9345 1.93204 76.2107 3.23829C76.4557 4.42918 76.7353 5.60819 76.806 6.82283Z" fill="#DBDDDF"/>
<path d="M0.161133 11.7324L1.72327 11.7443C1.87543 13.2822 2.10429 14.811 2.40896 16.3246C2.03076 16.4705 1.62954 16.4196 1.24147 16.4739C1.09348 16.4943 1.0425 16.3806 1.01126 16.2585C0.641283 14.7707 0.271304 13.283 0.161133 11.7324Z" fill="#BCBEC0"/>
<path d="M1.71998 6.83667C1.20858 6.80953 0.692258 6.90453 0.189087 6.75694C0.200597 6.64837 0.212108 6.5398 0.225263 6.43123C0.225263 6.3956 0.241706 6.35998 0.251572 6.32605C0.38915 5.08239 0.620052 3.85162 0.942199 2.64482C0.96522 2.56 0.96522 2.53116 0.99153 2.44973C1.08032 2.11044 1.20694 2.05785 1.49635 2.06803C1.61638 2.0833 1.66078 2.09518 1.78411 2.10366C1.9853 2.11748 2.1853 2.14582 2.38265 2.18848C2.41883 2.20714 2.41883 2.20714 2.42376 2.23259C2.40567 2.34964 2.39087 2.46669 2.36621 2.58205C2.07187 3.95276 1.91894 5.36248 1.7282 6.76033C1.72491 6.78408 1.72162 6.80783 1.71998 6.83667Z" fill="#DBDDDF"/>
<path d="M75.2471 11.7374C75.7733 11.7713 76.3044 11.6763 76.8257 11.8069C76.7106 13.3235 76.3505 14.7909 75.9854 16.2584C75.9377 16.4534 75.821 16.5009 75.645 16.4772C75.3047 16.4297 74.9626 16.389 74.6223 16.3466C74.6345 16.1102 74.6659 15.8753 74.716 15.6442C74.9248 14.3465 75.2208 13.0623 75.2471 11.7374Z" fill="#BCBEC0"/>
<path d="M39.5631 15.3798C40.2504 17.0457 40.9378 18.7116 41.6251 20.3775C41.6695 20.4861 41.7205 20.5912 41.7682 20.6981C41.7369 20.7388 41.704 20.7796 41.6728 20.822C41.4557 21.112 41.3439 21.0272 41.2305 20.7219C40.7536 19.514 40.2438 18.3197 39.7719 17.1119C39.7417 16.9852 39.6655 16.8753 39.559 16.8049C39.4525 16.7344 39.3239 16.7089 39.1997 16.7336C38.7669 16.7709 38.3318 16.7709 37.899 16.7336C37.483 16.6878 37.3202 16.8778 37.1837 17.2425C36.7792 18.3231 36.3418 19.3919 35.9159 20.4657C35.7104 20.9746 35.7104 20.9746 35.3404 20.5607C35.4654 20.2571 35.592 19.9551 35.7137 19.6514C36.2859 18.2287 36.8576 16.8048 37.4287 15.3798C37.6162 15.3798 37.7411 15.1576 37.9648 15.2102C37.8184 15.6309 37.6819 16.0245 37.5422 16.4181C37.4978 16.5419 37.4616 16.6623 37.654 16.6572C38.1473 16.642 38.6406 16.6963 39.1471 16.6148C39.443 16.569 39.4644 16.4452 39.3658 16.1873C39.2457 15.8786 39.0616 15.5834 39.0796 15.2051L39.5631 15.3798Z" fill="#DF131A"/>
<path d="M72.4024 1.04492C72.5406 2.18831 72.6781 3.3317 72.8152 4.47509C72.9001 5.04435 72.944 5.61931 72.9467 6.19526H72.0144C71.8499 5.62187 71.8812 5.02642 71.8187 4.44116C71.7151 3.45214 71.6394 2.45804 71.4898 1.47242C71.4816 1.35495 71.4816 1.23703 71.4898 1.11956L71.7891 1.0551L72.4024 1.04492Z" fill="#D9D9D9"/>
<path d="M72.9401 12.3755C72.9401 13.563 72.7247 14.7505 72.598 15.9261C72.5438 16.435 72.4698 16.944 72.404 17.4529L71.4963 17.3816C71.641 16.0415 71.7852 14.7013 71.9288 13.3611C71.9403 13.2441 71.9288 13.1253 71.9387 13.0083L71.9535 12.3857L72.9401 12.3755Z" fill="#BCBEC0"/>
<path d="M4.56469 17.4476C4.42492 16.2143 4.28021 14.981 4.14538 13.7477C4.09605 13.293 4.06809 12.8367 4.03027 12.3804H4.85245C4.88862 12.5907 4.83765 12.813 4.93302 13.0131C4.97578 14.3126 5.21256 15.5883 5.35726 16.8742C5.37535 17.0438 5.37864 17.2135 5.38851 17.3831L4.56469 17.4476Z" fill="#BCBEC0"/>
<path d="M4.02539 6.20062C4.1405 4.70608 4.31151 3.21831 4.50883 1.73395C4.53678 1.52529 4.56474 1.31663 4.59105 1.10797C4.78157 1.12149 4.97296 1.11296 5.16164 1.08252C5.22008 1.08574 5.27828 1.09254 5.33594 1.10288L5.40665 1.14189C5.29812 2.05627 5.17972 2.96894 5.07778 3.88331C4.99391 4.65518 4.92978 5.42705 4.85743 6.20062C4.58283 6.05982 4.30164 6.18875 4.02539 6.20062Z" fill="#D9D9D9"/>
<path d="M74.6289 2.15088C74.7177 3.29257 74.9923 4.40712 75.1222 5.54372C75.1699 5.94747 75.2669 6.34613 75.2373 6.75836C75.0005 6.76854 74.744 6.68202 74.5549 6.91273C74.3904 6.67015 74.5549 6.36479 74.4102 6.11711C74.3921 4.88042 74.0813 3.68784 73.8971 2.47659C73.8823 2.37481 73.8708 2.26963 73.8577 2.16784L74.6289 2.15088Z" fill="#D0D0D2"/>
<path d="M75.2471 11.7373C75.2208 13.0622 74.9183 14.3464 74.716 15.6391C74.6659 15.8701 74.6346 16.105 74.6223 16.3414L73.8757 16.3244C74.1257 15.0131 74.4102 13.7085 74.4809 12.3684C74.5664 12.1665 74.5384 11.9477 74.5729 11.739H75.2471V11.7373Z" fill="#ABADAF"/>
<path d="M1.72821 6.76021C1.91896 5.36236 2.07188 3.95772 2.36622 2.57683C2.39088 2.46147 2.40568 2.34442 2.42377 2.22737C2.51812 2.19617 2.61591 2.17736 2.71482 2.17139L3.11275 2.18326C2.94832 3.21978 2.78388 4.25798 2.61123 5.2945C2.5729 5.59421 2.55587 5.89641 2.56025 6.19869C2.43035 6.38869 2.54216 6.63467 2.42213 6.82806C2.197 6.76069 1.96159 6.73767 1.72821 6.76021Z" fill="#D0D0D2"/>
<path d="M2.40896 16.3367C2.10429 14.8231 1.87543 13.2943 1.72327 11.7563H2.39909L2.49776 12.3789C2.5882 13.714 2.87267 15.0186 3.10288 16.3316L2.40896 16.3367Z" fill="#ABADAF"/>
<path d="M43.6526 19.8752C42.9444 18.1278 42.2362 16.3805 41.5281 14.6332C41.3209 14.1243 41.3176 14.1243 41.8438 14.0938C42.2154 14.9827 42.5859 15.871 42.9554 16.7588C43.2448 17.6579 43.6526 18.5061 43.9979 19.3832C44.2034 19.8989 44.2067 19.8989 43.6526 19.8752Z" fill="#DF131A"/>
<path d="M34.0479 16.7945L35.1578 14.0938H35.1874H35.3371L35.638 14.1056C35.6627 14.2346 35.5804 14.3296 35.5377 14.4449C34.8394 16.2205 34.14 17.9961 33.4395 19.7717L33.1748 19.7869C32.9462 19.8022 32.9232 19.7072 33.0103 19.5036C33.3211 18.7419 33.6187 17.9769 33.918 17.2101C33.9657 17.0676 34.0035 16.9302 34.0479 16.7945Z" fill="#DF131A"/>
<path d="M41.7172 5.11488L41.4508 5.10131C41.4508 4.17846 41.4409 3.2573 41.459 2.33614C41.459 2.01043 41.3472 1.91034 41.0578 1.94766C40.9452 1.94182 40.8328 1.96211 40.7289 2.00704C40.6794 1.98357 40.6255 1.97143 40.571 1.97143C40.5165 1.97143 40.4627 1.98357 40.4132 2.00704C40.313 1.98941 40.212 1.97751 40.1106 1.97141C38.9387 1.98159 37.7658 1.99403 36.5917 2.00874H36.2744C36.0382 1.9449 35.7907 1.94025 35.5525 1.99516L35.4933 1.88829C36.1675 1.88829 36.8417 1.86963 37.5142 1.86963C38.9135 1.86963 40.3096 1.86963 41.7122 1.87981C41.7111 2.9576 41.7128 4.03596 41.7172 5.11488Z" fill="#BCBEC0"/>
<path d="M33.4395 19.7633C34.14 17.9877 34.8394 16.2121 35.5377 14.4365C35.5805 14.3296 35.6627 14.2346 35.638 14.0972C35.8419 14.0294 36.0359 13.8733 36.2596 14.0328C36.0014 14.0328 35.8649 14.1447 35.7663 14.4128C35.0806 16.2025 34.3719 17.9752 33.6697 19.765L33.4395 19.7633Z" fill="#DFC245"/>
<path d="M37.4271 15.3713C36.857 16.7951 36.2859 18.219 35.7137 19.6429C35.592 19.9465 35.4654 20.2485 35.3404 20.5521L35.176 20.3825C35.8644 18.6623 36.5517 16.9416 37.238 15.2203C37.2478 15.1693 37.2478 15.1169 37.238 15.0659H37.5175L37.4271 15.3713Z" fill="#DFC245"/>
<path d="M42.9554 16.7588C42.586 15.8721 42.2154 14.9838 41.8438 14.0937C42.0059 13.925 42.0989 13.6984 42.1036 13.4609C42.199 12.6501 42.3059 12.5347 43.0902 12.3735C42.5525 12.6365 42.5558 13.1963 42.3453 13.6645C42.079 14.2532 42.3075 14.645 42.4884 15.1166C42.6989 15.668 42.9192 16.2142 43.1741 16.7435L42.9554 16.7588Z" fill="#BCBEC0"/>
<path d="M71.0968 18.5691L71.3484 18.4707L71.0968 18.5691Z" fill="#48A6C4"/>
<path d="M0.252376 6.32764C0.242215 6.36157 0.233748 6.39719 0.225281 6.43281C0.233748 6.3904 0.242215 6.35478 0.252376 6.32764Z" fill="#D0D0D2"/>
<path d="M37.5175 15.0742H37.233C36.9749 14.9927 36.9041 14.7349 36.7742 14.5364C36.663 14.3162 36.4819 14.1419 36.2612 14.0427C36.0376 13.8833 35.8435 14.0427 35.6396 14.1072L35.3387 14.0953C35.3186 14.0755 35.2918 14.0645 35.2639 14.0645C35.2361 14.0645 35.2093 14.0755 35.1891 14.0953H35.1595C35.0758 14.0147 35.0085 13.9177 34.9616 13.8099C34.9148 13.7021 34.8892 13.5858 34.8865 13.4677C34.7912 12.6415 34.732 12.5753 33.918 12.3616C33.5332 12.1682 33.4428 11.8527 33.6286 11.4794C33.8983 10.9349 33.7782 10.5278 33.3392 10.1223C32.9002 9.71687 32.9166 9.48445 33.3392 9.10446C33.8013 8.69223 33.8703 8.27491 33.6253 7.71509C33.4231 7.25536 33.5283 7.01786 34.0035 6.87706C34.5971 6.70741 34.9194 6.36813 34.903 5.70822C34.8865 5.30956 35.1513 5.11278 35.5443 5.09581C36.2333 5.28072 36.2711 5.25188 36.2711 4.55635C36.2711 3.70701 36.2711 2.8588 36.2711 2.01172H36.5884V4.79046C36.6937 4.75302 36.7827 4.67854 36.84 4.5801C37.187 4.05421 37.358 4.0135 37.8694 4.34939C38.056 4.48667 38.264 4.58994 38.4844 4.65474C38.4844 4.79385 38.4844 4.93126 38.4844 5.07037C38.2624 5.07037 38.1111 4.9143 37.9384 4.80572C37.4797 4.51903 37.2577 4.54278 36.9946 5.02287C36.7315 5.50295 36.424 5.63358 35.9258 5.54536C35.4275 5.45715 35.2335 5.61322 35.2121 6.11875C35.1891 6.69045 34.9392 6.96697 34.4195 7.10438C34.0052 7.21804 33.8769 7.49286 34.0479 7.89491C34.2732 8.42249 34.1827 8.80249 33.7667 9.1808C33.4263 9.48954 33.428 9.75079 33.7667 10.0545C34.1844 10.4311 34.2781 10.8128 34.0496 11.3403C33.8753 11.7492 34.0002 12.0189 34.4195 12.1309C34.9572 12.2785 35.2006 12.5736 35.2236 13.1487C35.2417 13.6085 35.4571 13.79 35.8814 13.6933C36.4487 13.566 36.7627 13.79 37.0324 14.2701C37.2495 14.6602 37.4895 14.6857 37.876 14.4685C38.0733 14.3566 38.2394 14.1683 38.4909 14.1751L38.4811 14.5703C38.116 14.6568 37.8612 14.9605 37.5175 15.0742Z" fill="#F7D74C"/>
<path d="M4.0254 6.20056C4.30329 6.18868 4.58283 6.05975 4.86073 6.20056C4.74727 8.25778 4.74727 10.32 4.86073 12.3772H4.03855L4.0254 12.3637C3.91276 10.3087 3.91276 8.24876 4.0254 6.19377V6.20056Z" fill="#D0D0D2"/>
<path d="M36.2678 2.00664C36.2678 2.85598 36.2678 3.70419 36.2678 4.55127C36.2678 5.2468 36.23 5.27564 35.541 5.09073C35.541 4.05591 35.541 3.02166 35.541 1.98798C35.7812 1.9339 36.0305 1.9403 36.2678 2.00664Z" fill="#DF474D"/>
<path d="M72.9401 12.3754H71.9535C72.1689 10.3159 72.0078 8.25305 72.0143 6.19189H72.9467H73.0141C73.0141 6.74493 72.9812 7.30305 73.0338 7.85269C73.1802 9.35572 73.0207 10.8503 72.9565 12.3482L72.9401 12.3754Z" fill="#D0D0D2"/>
<path d="M43.2727 12.2787C43.5046 11.9971 43.4651 11.6883 43.3221 11.3914C43.0935 10.9147 43.2086 10.5551 43.5819 10.2039C44.067 9.7476 44.0752 9.5084 43.5967 9.06564C43.1922 8.69073 43.0951 8.30903 43.3369 7.81029C43.5013 7.471 43.5112 7.14529 43.1445 6.91797C43.6641 6.94681 43.8104 7.14529 43.6805 7.64743C43.6595 7.75061 43.6281 7.85125 43.5868 7.9477C43.3944 8.36841 43.5013 8.68734 43.8269 8.99948C44.3613 9.5084 44.3744 9.72555 43.8515 10.2294C43.4668 10.5975 43.4174 10.9605 43.623 11.4169C43.7611 11.7307 43.8351 12.0547 43.4585 12.277L43.2727 12.2787Z" fill="#BCBEC0"/>
<path d="M43.0952 6.90276C42.4374 6.77892 42.0576 6.41419 42.0855 5.68473C42.0716 5.50034 42.0072 5.32384 41.8997 5.1758C41.9498 5.1637 42.0019 5.16281 42.0523 5.1732C42.1028 5.1836 42.1505 5.20503 42.1923 5.23606C42.234 5.26708 42.2689 5.30698 42.2944 5.35306C42.32 5.39915 42.3357 5.45035 42.3404 5.50321C42.3684 6.11392 42.5575 6.60249 43.0952 6.90276Z" fill="#D0D0D2"/>
<path d="M38.4811 4.65519C38.2607 4.59039 38.0527 4.48711 37.8661 4.34983C37.3547 4.01055 37.1837 4.05465 36.8367 4.58054C36.7794 4.67898 36.6904 4.75346 36.5851 4.7909V2.01047C37.757 1.99689 38.93 1.98445 40.1041 1.97314C40.2049 1.97915 40.3054 1.99105 40.405 2.00877C40.405 2.98025 40.3989 3.95174 40.3869 4.92322C40.2866 4.77394 40.1846 4.62635 40.0827 4.47706C39.8212 4.09197 39.6255 4.04278 39.2243 4.28367C38.9843 4.42617 38.7623 4.60429 38.4811 4.65519Z" fill="#DF474D"/>
<path d="M38.4893 14.1823C38.2377 14.1823 38.0716 14.3638 37.8743 14.4757C37.4879 14.6929 37.2478 14.6674 37.0308 14.2773C36.7644 13.7972 36.4503 13.5732 35.8797 13.7005C35.4505 13.7972 35.2351 13.6157 35.222 13.1559C35.199 12.5741 34.9556 12.2789 34.4179 12.1381C33.9986 12.0227 33.8736 11.7564 34.0479 11.3475C34.2765 10.82 34.1828 10.4383 33.7651 10.0617C33.4362 9.75799 33.4362 9.49674 33.7651 9.188C34.1811 8.80969 34.2715 8.42969 34.0463 7.90211C33.8818 7.50006 34.0035 7.22354 34.4179 7.11158C34.9375 6.96908 35.1874 6.69765 35.2105 6.12595C35.2318 5.61703 35.439 5.46605 35.9241 5.55256C36.4092 5.63908 36.7463 5.4881 36.9929 5.03007C37.2396 4.57203 37.4863 4.52114 37.9368 4.81292C38.1095 4.9215 38.2657 5.07587 38.4827 5.07757C38.731 5.07757 38.902 4.89944 39.0977 4.78239C39.5121 4.53641 39.7407 4.54998 39.9626 4.969C40.2405 5.4898 40.6023 5.64756 41.1548 5.5373C41.5231 5.46265 41.755 5.65774 41.7747 6.0581C41.8027 6.63488 42.0181 6.97417 42.5969 7.11836C42.9965 7.21675 43.128 7.50006 42.9619 7.88005C42.7136 8.44157 42.8403 8.83684 43.2744 9.23719C43.5851 9.5171 43.5358 9.74612 43.2152 10.0617L43.1477 9.9921C43.3467 9.73594 43.3648 9.48317 43.1034 9.26773C42.6216 8.88434 42.5426 8.4297 42.8008 7.87666C42.9406 7.5764 42.8287 7.34399 42.5245 7.26765C41.9309 7.12006 41.6448 6.75872 41.6382 6.12256C41.6382 5.7748 41.4113 5.61364 41.094 5.69337C40.5168 5.83756 40.1337 5.63908 39.8771 5.09453C39.7242 4.77051 39.4726 4.73489 39.1766 4.93337C38.9704 5.09231 38.7356 5.20762 38.486 5.27265C38.2443 5.28623 38.0979 5.09114 37.9154 4.98596C37.4435 4.70944 37.3251 4.71623 37.0604 5.2031C36.974 5.40267 36.8212 5.56373 36.6297 5.65709C36.4381 5.75045 36.2205 5.76994 36.0162 5.71203C35.5229 5.62042 35.37 5.73408 35.347 6.2464C35.3223 6.79095 35.0674 7.07425 34.5774 7.22863C34.1334 7.36774 34.0545 7.5272 34.2271 7.96657C34.4294 8.4755 34.3455 8.86228 33.9361 9.22701C33.6072 9.52728 33.6072 9.75121 33.9443 10.0532C34.3538 10.4213 34.4245 10.8064 34.2239 11.317C34.0594 11.7479 34.14 11.9277 34.5823 12.0549C35.1118 12.2059 35.3404 12.535 35.3453 13.0728C35.3453 13.4494 35.541 13.6428 35.911 13.5715C36.47 13.4664 36.8762 13.619 37.1294 14.1823C37.2758 14.5046 37.5405 14.5453 37.8332 14.34C38.029 14.187 38.2527 14.0762 38.4909 14.0143C38.7178 14.0567 38.9325 14.1512 39.1191 14.2908C39.5614 14.5521 39.6946 14.5334 39.9413 14.0669C40.0256 13.8829 40.1669 13.7331 40.3428 13.6409C40.5187 13.5488 40.7193 13.5196 40.9131 13.558C41.5708 13.6224 41.6053 13.5902 41.6777 12.9082C41.6785 12.7213 41.7383 12.5397 41.8481 12.3909C41.9578 12.2421 42.1116 12.1343 42.2861 12.0838C42.9439 11.8429 42.9439 11.8124 42.7284 11.144C42.6183 10.8047 42.5788 10.4993 42.8929 10.2517L42.9652 10.3382C42.7712 10.5808 42.8008 10.8335 42.8945 11.1134C43.1395 11.8276 43.059 12.0058 42.3815 12.2161C42.2265 12.2534 42.0879 12.3425 41.9871 12.4695C41.8863 12.5965 41.8289 12.7543 41.824 12.9184C41.727 13.6903 41.5889 13.8057 40.8654 13.6852C40.7231 13.6532 40.5746 13.6708 40.443 13.7353C40.3115 13.7998 40.2044 13.9074 40.1386 14.0415C39.6913 14.7472 39.6009 14.7607 38.8889 14.3248C38.7731 14.2359 38.6335 14.1862 38.4893 14.1823Z" fill="#D55827"/>
<path d="M37.5175 15.0742C37.8628 14.9605 38.1177 14.6569 38.4811 14.5771C38.9021 14.7587 39.3773 14.8638 39.5647 15.3796L39.0813 15.1896C39.0632 15.5679 39.2457 15.8681 39.3674 16.1718C39.4661 16.4229 39.4447 16.5535 39.1487 16.5993C38.6554 16.6807 38.1621 16.6264 37.6556 16.6417C37.4632 16.6417 37.4912 16.5263 37.5438 16.4025C37.6836 16.0089 37.8201 15.6154 37.9664 15.1946C37.7428 15.1488 37.6178 15.3643 37.4304 15.3643C37.4567 15.271 37.4863 15.1726 37.5175 15.0742Z" fill="#E10B14"/>
<path d="M40.7223 2.00671C40.8263 1.96178 40.9387 1.94149 41.0512 1.94734C41.3406 1.91001 41.459 2.0101 41.4524 2.33582C41.4343 3.25697 41.4524 4.17813 41.4442 5.10098C41.2089 5.17707 40.9604 5.19964 40.7158 5.16714L40.7223 2.00671Z" fill="#DF474D"/>
<path d="M40.7224 2.00681V5.16724C40.6525 5.15705 40.586 5.1295 40.5287 5.08694C40.4714 5.04439 40.425 4.98811 40.3935 4.92296C40.3935 3.95148 40.399 2.97999 40.4099 2.00851C40.4589 1.98549 40.5121 1.97344 40.566 1.97315C40.6198 1.97286 40.6731 1.98433 40.7224 2.00681Z" fill="#F7D74C"/>
<path d="M43.2102 10.0481L43.1116 10.177L43.0261 10.1041C43.0655 10.0633 43.1033 10.0209 43.1428 9.97852L43.2102 10.0481Z" fill="#D55827"/>
<path d="M43.1083 10.177L43.031 10.2584L42.9537 10.1786L43.0228 10.104L43.1083 10.177Z" fill="#D55827"/>
<path d="M43.0343 10.2584L42.9553 10.3382L42.883 10.2517L42.957 10.1787L43.0343 10.2584Z" fill="#D55827"/>
<path d="M75.2471 11.7374H74.5729C74.6338 10.5227 74.6617 9.30811 74.6354 8.09008C74.6655 8.05837 74.6824 8.01573 74.6824 7.97133C74.6824 7.92692 74.6655 7.88429 74.6354 7.85258C74.6113 7.53705 74.5877 7.22095 74.5647 6.90428C74.7538 6.67357 75.0103 6.76008 75.2471 6.74991C75.2471 6.77366 75.2471 6.79741 75.2553 6.82116C75.3507 7.89329 75.3227 8.96883 75.331 10.0444C75.3412 10.61 75.3132 11.1757 75.2471 11.7374Z" fill="#BCBEC0"/>
<path d="M2.39912 11.7425H1.72494C1.60597 10.1095 1.60432 8.4697 1.72001 6.83647C1.72001 6.81272 1.72001 6.78897 1.72001 6.76522C1.95339 6.74268 2.1888 6.7657 2.41392 6.83307C2.38268 7.92218 2.29553 9.00789 2.32019 10.0987C2.34157 10.6449 2.45503 11.1895 2.39912 11.7425Z" fill="#BCBEC0"/>
<path d="M2.39908 11.7426C2.45499 11.1896 2.34153 10.6451 2.32838 10.0937C2.30371 9.00291 2.39086 7.91721 2.4221 6.8281C2.54214 6.63471 2.43032 6.38873 2.56023 6.19873H4.01877C3.90613 8.25372 3.90613 10.3136 4.01877 12.3686H2.49281L2.39908 11.7426Z" fill="#E7E7E9"/>
<path d="M74.5598 6.91134C74.5828 7.22914 74.6064 7.54524 74.6305 7.85964C74.6004 7.89135 74.5835 7.93399 74.5835 7.97839C74.5835 8.0228 74.6004 8.06543 74.6305 8.09714C74.6568 9.31517 74.6305 10.5298 74.568 11.7444C74.5335 11.9531 74.568 12.1719 74.4759 12.3738L72.9516 12.3586C73.0157 10.8606 73.1752 9.36607 73.0289 7.86304C72.9763 7.3134 73.0124 6.75527 73.0092 6.20224C73.4745 6.15983 73.9497 6.28028 74.4085 6.11572C74.5548 6.3634 74.4003 6.66706 74.5598 6.91134Z" fill="#E7E7E9"/>
<path d="M35.1874 14.087C35.2076 14.0672 35.2344 14.0562 35.2623 14.0562C35.2901 14.0562 35.3169 14.0672 35.3371 14.087H35.1874Z" fill="#DFC245"/>
<path d="M42.957 10.1783L42.883 10.2513C42.5739 10.4989 42.6133 10.8077 42.7186 11.1436C42.9373 11.812 42.929 11.8425 42.2762 12.0834C42.1041 12.1324 41.9517 12.2371 41.8416 12.3822C41.7314 12.5273 41.6694 12.705 41.6645 12.8892C41.5922 13.5678 41.5527 13.6034 40.8999 13.5389C40.7062 13.5006 40.5055 13.5298 40.3296 13.6219C40.1537 13.714 40.0125 13.8639 39.9281 14.0478C39.6782 14.5144 39.545 14.533 39.1059 14.2718C38.9193 14.1322 38.7046 14.0377 38.4778 13.9953C38.4778 13.885 38.4778 13.7747 38.4778 13.6645C38.5534 13.6645 38.6291 13.6492 38.7063 13.6441C40.1961 13.5372 41.3094 12.7959 41.9819 11.4388C42.6544 10.0816 42.5837 8.70242 41.7763 7.41823C41.0117 6.19681 39.8738 5.62681 38.4876 5.55217C38.4876 5.44869 38.4876 5.34521 38.4876 5.24342C38.7373 5.17838 38.972 5.06308 39.1783 4.90414C39.4743 4.70565 39.7258 4.73449 39.8788 5.0653C40.1353 5.60985 40.5184 5.80833 41.0956 5.66413C41.4129 5.5844 41.6366 5.74556 41.6399 6.09333C41.6399 6.72609 41.9326 7.09082 42.5262 7.23841C42.8304 7.31475 42.9422 7.54716 42.8024 7.84743C42.5443 8.40046 42.6232 8.8551 43.105 9.23849C43.3664 9.44546 43.3484 9.70671 43.1494 9.96286C43.1099 10.0053 43.0721 10.0477 43.0326 10.0884L42.957 10.1783Z" fill="#DFC245"/>
<path d="M38.4811 13.6715C38.4811 13.7818 38.4811 13.8921 38.4811 14.0023C38.2428 14.0643 38.0192 14.175 37.8233 14.328C37.5306 14.5333 37.2659 14.4977 37.1195 14.1703C36.8663 13.6071 36.4618 13.4544 35.9011 13.5596C35.5311 13.6308 35.3404 13.4374 35.3354 13.0608C35.3354 12.5163 35.1019 12.1872 34.5724 12.043C34.1301 11.9157 34.0446 11.7359 34.214 11.305C34.4146 10.7961 34.3439 10.4093 33.9344 10.0412C33.5957 9.73922 33.5924 9.5153 33.9262 9.21503C34.3357 8.8503 34.4195 8.46691 34.2173 7.95459C34.0446 7.51522 34.1235 7.35575 34.5675 7.21665C35.0608 7.06227 35.3124 6.77897 35.3371 6.23442C35.3601 5.72549 35.5015 5.60844 36.0063 5.70005C36.2106 5.75796 36.4282 5.73847 36.6198 5.64511C36.8113 5.55175 36.9641 5.39069 37.0505 5.19112C37.3152 4.70425 37.4336 4.69746 37.9055 4.97398C38.0881 5.07916 38.2344 5.27424 38.4761 5.26067C38.4761 5.36246 38.4761 5.46594 38.4761 5.56942L38.1703 5.59826C37.4864 5.65554 36.8292 5.89729 36.2644 6.29927C35.6997 6.70126 35.2473 7.24935 34.9527 7.88859C34.658 8.52784 34.5314 9.23576 34.5856 9.94139C34.6398 10.647 34.8729 11.3255 35.2614 11.9089C36.0376 13.0574 37.131 13.6223 38.4811 13.6715Z" fill="#F7D74C"/>
<path d="M74.6354 8.09687C74.6053 8.06516 74.5884 8.02253 74.5884 7.97812C74.5884 7.93372 74.6053 7.89109 74.6354 7.85938C74.6656 7.89109 74.6825 7.93372 74.6825 7.97812C74.6825 8.02253 74.6656 8.06516 74.6354 8.09687Z" fill="#D0D0D2"/>
<path d="M38.4811 13.6716C37.1311 13.6224 36.0376 13.0575 35.268 11.9006C34.8795 11.3173 34.6464 10.6389 34.5922 9.93339C34.5379 9.2279 34.6643 8.52007 34.9588 7.88088C35.2533 7.24168 35.7054 6.69356 36.2699 6.29147C36.8344 5.88937 37.4915 5.64742 38.1752 5.58987L38.4811 5.56104C39.8722 5.6272 41.0101 6.19719 41.7698 7.4271C42.5771 8.71808 42.6528 10.0939 41.9786 11.4544C41.3044 12.8149 40.1928 13.5529 38.7031 13.6597C38.6323 13.6564 38.5567 13.6648 38.4811 13.6716ZM38.4811 13.446C40.4855 13.5308 42.2154 11.7682 42.2203 9.63923C42.2203 7.48308 40.4937 5.70184 38.4778 5.79344C37.9718 5.7787 37.4688 5.87721 37.0032 6.08221C36.5377 6.2872 36.1207 6.59381 35.781 6.98094C35.2662 7.53662 34.9256 8.23942 34.8036 8.99773C34.6815 9.75604 34.7838 10.5347 35.097 11.2322C35.7186 12.6046 37.1113 13.5189 38.4876 13.4528L38.4811 13.446Z" fill="#DF131A"/>
<path d="M38.4844 5.79341C40.5003 5.7018 42.2335 7.48983 42.2269 9.6392C42.2269 11.7682 40.4921 13.5308 38.4877 13.446C38.4866 10.8968 38.4855 8.34596 38.4844 5.79341Z" fill="#DFC245"/>
<path d="M38.4844 5.79313C38.4844 8.34455 38.4844 10.8954 38.4844 13.4457C37.1081 13.5186 35.7153 12.606 35.1003 11.2285C34.7871 10.531 34.6849 9.75233 34.8069 8.99402C34.9289 8.23571 35.2695 7.53291 35.7844 6.97723C36.1247 6.59028 36.5424 6.28404 37.0085 6.07962C37.4746 5.8752 37.9781 5.77746 38.4844 5.79313Z" fill="#F7D74C"/>
</g>
<defs>
<clipPath id="clip0_27_179">
<rect width="77" height="21" fill="white"/>
</clipPath>
</defs>
</svg>
