<svg xmlns="http://www.w3.org/2000/svg" viewBox="0 0 578.83 800"><g id="Layer_1" data-name="Layer 1"><path d="M627.83,332.07a68.62,68.62,0,0,0-52.57,17.42,69.35,69.35,0,0,0-5,5c-10.63-19.85-30.2-34.09-53-36.27a68.59,68.59,0,0,0-52.56,17.42q-2.62,2.4-5,5c-9.28-17.33-25.37-30.38-44.51-34.87a179.31,179.31,0,0,0,53.06-127C468.25,80.22,388,0,289.42,0S110.58,80.22,110.58,178.83A179.51,179.51,0,0,0,221.17,344.17V421l-49.8,35.57a81.64,81.64,0,0,0-30.15,92.73l49.11,147.34A151,151,0,0,0,333.76,800H538.23c83.36,0,151.19-67.82,151.19-151.19V402.38C689.42,366.24,662.36,335.36,627.83,332.07Z" transform="translate(-110.58)" style="fill:#fff"/></g><g id="Layer_1_copy" data-name="Layer 1 copy"><path d="M627.83,332.07a68.62,68.62,0,0,0-52.57,17.42,69.35,69.35,0,0,0-5,5c-10.63-19.85-30.2-34.09-53-36.27a68.59,68.59,0,0,0-52.56,17.42q-2.62,2.4-5,5c-9.28-17.33-25.37-30.38-44.51-34.87a179.31,179.31,0,0,0,53.06-127C468.25,80.22,388,0,289.42,0S110.58,80.22,110.58,178.83A179.51,179.51,0,0,0,221.17,344.17V421l-49.8,35.57a81.64,81.64,0,0,0-30.15,92.73l49.11,147.34A151,151,0,0,0,333.76,800H538.23c83.36,0,151.19-67.82,151.19-151.19V402.38C689.42,366.24,662.36,335.36,627.83,332.07ZM136.5,178.83c0-84.31,68.6-152.91,152.92-152.91s152.91,68.6,152.91,152.91A153.57,153.57,0,0,1,357.67,315.7V281.82a123.55,123.55,0,1,0-136.5,0V315.7A153.56,153.56,0,0,1,136.5,178.83ZM296.08,110.9a68.26,68.26,0,0,0-74.91,67.93v69.76a97.62,97.62,0,1,1,136.5,0V181.21C357.67,145.08,330.61,114.19,296.08,110.9ZM538.23,774.08H333.76a125.12,125.12,0,0,1-118.85-85.65L165.8,541.09a55.88,55.88,0,0,1,20.64-63.45l34.73-24.81V565.88a13,13,0,1,0,25.92,0v-387a42.34,42.34,0,0,1,46.53-42.13c21.38,2,38.13,21.59,38.13,44.51V455.29a13,13,0,0,0,25.92,0V372.36A42.41,42.41,0,0,1,371.54,341a42,42,0,0,1,32.66-10.79c21.38,2,38.13,21.58,38.13,44.5v94.39a13,13,0,1,0,25.92,0V386.18a42.44,42.44,0,0,1,13.87-31.33,42,42,0,0,1,32.66-10.8c21.39,2,38.14,21.59,38.14,44.51v94.38a13,13,0,1,0,25.91,0V400a42.44,42.44,0,0,1,13.87-31.33,42,42,0,0,1,32.67-10.8c21.38,2,38.13,21.59,38.13,44.51V648.81h0A125.41,125.41,0,0,1,538.23,774.08Z" transform="translate(-110.58)"/></g></svg>