<svg id="Layer_1" data-name="Layer 1" xmlns="http://www.w3.org/2000/svg" viewBox="0 0 510.86 430.44"><path d="M407.6,430.44c-2.63-.55-5.31-.93-7.88-1.69-6.86-2.05-12.77-5.83-18.45-10.15-17.66-13.44-35.43-26.75-53.16-40.1l-54.29-40.89c-.29-.22-.6-.42-1-.7l-6.61,6.26-47.23,45c-4,3.81-8,7.64-12,11.42-8.95,8.41-20.3,6.93-27.16-3.31-1.71-2.56-1.6-5.07-1.37-7.82.94-11,1.82-22,2.72-33.06q1.68-20.64,3.38-41.27c.34-4.27.66-8.54,1.08-12.8a3.13,3.13,0,0,1,.91-1.89q24.85-22.71,49.76-45.36l72.46-66L403,102.25c8.11-7.39,16.25-14.75,24.3-22.21a21.93,21.93,0,0,0,3.86-4.68c1.71-2.83.48-5.06-2.81-5.49a17,17,0,0,0-8.79,1.33,57.34,57.34,0,0,0-8.36,4.11c-9.92,6.08-19.75,12.32-29.63,18.47L272.28,161.71l-114.15,71Q144,241.42,130,250.2a3.19,3.19,0,0,1-3,.4Q70.23,232.39,13.43,214.24a20.29,20.29,0,0,1-11.7-8.84c-2.89-4.88-1.92-9.62,1.12-14,3.68-5.36,8.91-8.84,14.85-11.14Q102,147.43,186.4,114.75L328.61,59.59Q399,32.3,469.32,5A69.29,69.29,0,0,1,486.21.35l3-.35h2.24a4.57,4.57,0,0,0,.71.17c9.58.81,15.13,5.41,17.55,14.7.56,2.16.81,4.39,1.2,6.59V29c-.3,2.29-.47,4.61-.91,6.88q-2.08,10.77-4.34,21.5-8.39,40.08-16.8,80.16-9.69,46.11-19.37,92.22-7.17,34.1-14.32,68.2-10.68,50.8-21.34,101.62c-1.38,6.61-3.11,13.11-6.5,19S419.18,429,412,430.1l-2.2.34Z"/></svg>