<svg width="82" height="51" viewBox="0 0 82 51" fill="none" xmlns="http://www.w3.org/2000/svg">
<g clip-path="url(#clip0_28_252)">
<path d="M26.2633 8.45148L50.0463 32.2029L64.9288 17.34L56.0285 8.45148L64.1993 0.29148C64.637 -0.145663 65.3665 -0.145663 65.6584 0.29148L82 16.6115C82.4377 17.0486 82.4377 17.7772 82 18.2143L50.7758 49.2515C50.3381 49.6886 49.6085 49.6886 49.3167 49.2515L17.363 17.34L26.2633 8.45148Z" fill="#009090"/>
<path d="M56.0285 8.45148L32.2455 32.2029L17.363 17.34L26.2633 8.45148L18.0925 0.29148C17.6548 -0.145663 16.9253 -0.145663 16.4875 0.29148L0.291816 16.6115C-0.145907 17.0486 -0.145907 17.7772 0.291816 18.2143L31.516 49.3972C31.9537 49.8343 32.6833 49.8343 33.121 49.3972L65.0747 17.4858L56.0285 8.45148Z" fill="#00CAB9"/>
</g>
<defs>
<clipPath id="clip0_28_252">
<rect width="82" height="51" fill="white"/>
</clipPath>
</defs>
</svg>
