<svg width="28" height="54" viewBox="0 0 28 54" fill="none" xmlns="http://www.w3.org/2000/svg">
<g clip-path="url(#clip0_28_283)">
<path d="M28 16.0809L13.9007 8.13971L0 16.0809V8.13971L13.9007 0L27.8014 8.13971L28 16.0809Z" fill="#A435F0"/>
<path d="M3.68059e-06 22.8309H7.34752V40.5C7.34752 45.0661 10.7234 47.25 13.9007 47.25C17.078 47.25 20.4539 44.8676 20.4539 40.3014V22.6323H27.8014V40.897C27.8014 45.0661 26.4114 48.4411 23.8298 50.625C21.2482 52.8088 17.8723 54 13.7021 54C9.7305 54 6.35461 53.0073 3.77305 50.625C1.19149 48.4411 -0.198578 45.2647 -0.198578 41.0956C3.68059e-06 41.2941 3.68059e-06 22.8309 3.68059e-06 22.8309Z" fill="black"/>
</g>
<defs>
<clipPath id="clip0_28_283">
<rect width="28" height="54" fill="white"/>
</clipPath>
</defs>
</svg>
